<mxfile host="Electron" agent="Mozilla/5.0 (Windows NT 10.0; Win64; x64) AppleWebKit/537.36 (KHTML, like Gecko) draw.io/27.0.9 Chrome/134.0.6998.205 Electron/35.4.0 Safari/537.36" version="27.0.9">
  <diagram name="PÃ¡gina-1" id="IKVGy_DopQR0RWY-qbrC">
    <mxGraphModel dx="641" dy="1614" grid="1" gridSize="10" guides="1" tooltips="1" connect="1" arrows="1" fold="1" page="1" pageScale="1" pageWidth="827" pageHeight="1169" math="0" shadow="0">
      <root>
        <mxCell id="0" />
        <mxCell id="1" parent="0" />
        <mxCell id="420Tv9R_N6Mz5HBJ3JaE-1" value="" style="shape=image;verticalLabelPosition=bottom;labelBackgroundColor=default;verticalAlign=top;aspect=fixed;imageAspect=0;image=data:image/png,iVBORw0KGgoAAAANSUhEUgAAAigAAAC/CAYAAADU8SdXAAAAAXNSR0IArs4c6QAAAARnQU1BAACxjwv8YQUAAAAJcEhZcwAADsMAAA7DAcdvqGQAALnfSURBVHhe7J13WBRXF4d/LEu3YAEFbKiAoqARe++aaKLGRI3GrjEaJZpi1NhjNHbF3rAr1QKCxm5EqTZERekgUpQiSNvd2fP9sZQtd2Cx58u8z5PnMeyUe88998zdndl9dYiIICAgICAgICDwESFS/4OAgICAgICAwIdGWKAICAgICAgIfHQICxSB/xvkaR6YOWgWPBI49ZcEBAQEBP5lCAsUgf8bsi4FQjbmZwxvqKv+koCAgIDAvwwdbR6SLXp2H7diX0Ku/gJEqGnbAfbmuoA8C/fOnEV6s6HoZ2usvmGlkWfegc/fWXD8sjcaG6i/qkCbbTTJR+w/Z/BPnD5aDhiMtnXFADikPQxGVKZSD0XVYN3GEVaGyvvyUYTM+Cgk5BihgV0T1JBkIce4BsTxF3HUOx2dfhoNRzFQGBuA83Gm6NarJWrwLA3lmQHYvfMpus8dBXux+quVQYbM2AjEvjJFE/v60Ml9hWo1qquuSAszkSGriVpVyv6Ul3AXd5NeQaeaNdo4WqGk+6/i7+De0zyQjhi1m7VHs1qKI+Un3cOdhFwQdKAjEsOktjWa2ZqX7qdMYWYGZDVrQel0yI0LQ3hyITSSUGSKJvbVkf4gAbkE6OiIoGtQDXUa28K6pr761gDkyIx/jIJazWFVVf01QJYZi4jYVzBtYo/6Orl4Va0GqvOMgYCAgIDAh0erEm1gaQuLu3/g0+7d0XfxVcjFInBZj3By4TeY7/cKACBPPow5I8ZixGI/9d1fAw5Ru2dgxLejsOxcofqLxWizjRryLFye2w1t+nyDSRO+ROe2o3AwngMkt7Dx6x7o1q1b6X89R25BuOaKTA050v9ZiwlffocNfg+QGBsCj/U/YdygH3AkKRUx149iw6bziJcBQB4urPoVHmlVUK3cqOtARySCjvqfKwMXh+PThsH5UBgeh3lg8bB26PH7dUhUNpIj8cAkjHJ5AJnSXw1rm0Pv0U5M7NITP5xMKV2UGplbQOKzFFse1YSF0pXd0MwS4vM/oe+oNbgW9wRX1g+DY7sZ8IxXu80iT8SBSaPg8kD5bEUI3roEuwMiERtzDRvGDMSvnk8QF3Ubp1Ysw7H0mrDUu4Cf+43EX5fjEHfHEz93t0P3eeeQxhibV+fmY8IW1f4AHOKOT8Mw50MIexwGj8XD0K7H77iuGgwBAQEBgY8N0pKCk2OplkiHDIcepjziKD01naRxO2nD8eziLV5R1NUzdDOxSG3P1yTnEV06E0zJUvUXlNBmGyW4ZB/afewh5RbGk9fEpiTW0aPOq6NJkrCTJn/5C63btZ8OHTpIm8baU8PJfpSnfgA1iu6tph71e9GGR8oNKKC7f/1Aa8KlxCVsol5W4+l0ARFJ79NJ9zDKVdryXVEUNJdadV1FkbLiP2SdoQVL/KhAeSPpXVrerSZVtf2Rrqm8QESFF8j5kzpkataXNt4vLP1z9sHfaHGw5vjmHf+KTFvMo+AiIpKG09I2+mQx+YzK+aR3l1O3mlXJ9sdrSn8vojs3QxRxlobQ/JamNPyYIuqy+EAKTJAR5XnSqFrN6JcbivO+OjOZrAza058PSzpXDF9/ioJobquutKosGHRmwRLyU++zgICAgMBHRbnv5XmRPYK3VxhkjSZixrDqAGRIunIAB09dxJmrkcUb5SL82F/4c80yzFvpg7giObLvHcEfP83BL9v/weOzf2D813NxIlkOefYtHFy+BIt+HI8pK88iMT8e5/YdhO/FM7j2WPF+uOJt5EgP2I5f5yzCHwvnY8OFRLV30oDI8nNM/aY5qhg0xKChXVFTZASzOqbQrTIEfx5bi5+/m4CxY/rDJItDvy97whhypJ1bhtEjfoWX+icCeIkzazfifoepmNhM+V6MIVrNmINhtXWg8jGIrDrMpUH4+4EMgASpoe7Y6nEXKSGHsXLxang/zAcAFCbdxNFt3ij5oIFLC4aX6w5sWL8f158p/pj78DR2btqAv/7agb9jNT890q1hhmrh2zFn1UUkSQCY9sOkb5pDT2mbvCtuSB+1Fl/me2Cnb6bSKwCggyr9V2DXkEQs/eY3XCi59aXD87mO8t/FdVCntg7yc16hLGJ5uOKWjlFrv0S+x06UnU4frTu1A+uGoG7DjujYQPEsifJZSS4HiY1hrHYPibc/ujVgVi0c2+eswkVFMNBv0jdorhwMAQEBAYGPjkovULj4C1g9Yxq23JIC0IeBAQCIYdVCFyHbXbDjXBQADjE7R6L/yiz0dR4Hs3Nj8fWqezC1M8GTgy7YvGkVtv/9GJG3wxCdEY9DEz/HH+k98VNfEfyWTMayK2awkV7HNpfduBArA+SJFW7DPd6Cbz5fgBinnzF3YBF2DR2EBQGKi74mHJKfRONVw28wbWgtiGrWRZ3iZ1jkz/3gG9UVQ3sYA5Ah5pIbvE4cxdkHUtVDSB7gZkgWrGxtVJ6pAABUbYKmFsoPasqRHnkBO5f/Cd8YGeSZj3F19x9YsGYjDt3SRX2JP2ZO34FoaToiL+zE8j99ESMDuPjDmD4/BM1HTcMoEw98OXIjHuf5Y84XeyEeMxuT613ClOmuSFa73aFrOxM7Xfrh2frP4NBqGBZ7RaOOnTVKWyRPxQkfGQaOHYNpo0xxdo8bEtRvmYhqY/BmNyyofRQTJ+9HjPpqTx1ZPvLycxHvtxr77jTF+En9YVL8kjz1BHxkAzF2zDSMMj2LPW4JjOeZyqMIaY9uwP/QMkxa+RA9/1qLKdZK8S2vP7q2mLnTBf2ercdnDq0wbLEXouvYQXl3AQEBAYGPj0ovUHQb9sD40T3RxEj13bRIR6fsjTQXA69DF5HJJeHynpN4VKSDmBv/ABBBpAvoGLTB2HVHEBxzGT+bnMA+/xeo06A+qg1YCreje/FTdyPoinVL3zlzcR4VbCPDQ7fDuJ5bE5ZWRhBbWsJc+gjHD19HUWkLlci7iR1u+fhu10oMqK78ghwv/H3xpOsw9DQBAH10XhWAyMjb2DZI/bFPAgGaD3cyEcHccSDaN1CEW1TTAQM7NYJhk0GYNX00Ro8fAOvUeDyVm8NxYHsoNpMhYv8WRLcYjGbGIlhOOYTgw5PR1OgTTNm6ED1fXIDfg1wg8zmUn+1VYAj78fsQEnEBy7ukYs+YDug007f0uQ3u8RFcrfIp2nMFsBsxAjZB++B6X3MFIjL+BL8c3Yl+Eb/im2U38Kq8zkrScMvHExfSO2LtzUBsHlij+AUOj49cRZVP24MrsMOIETYI2ucKxunKQQc6OjkIPbADD9qtwNaZbVUWhRX1x9B+PPaFRODC8i5I3TMGHTrNhC/rIRYBAQEBgY+GSi9QoKOPut1/xPf9q0EHQO6DcMSq3/3gMvAiiwBDG3w6/SfsDc5G1oUfS1/WqWMJq+Izc8/T8UJOSH/2DJx+Q/QY8RlaqH0Lo+Jt5MjKzAbp6EFfr2RZI0d2ZpbSbYYSXuLaijVI++EYVvetiYL0NOSWXKvkL+Dv8xhdhvYsffcPcS00blpX81sp+i3Q0ak6ku7dQ4bGtY4Dp3FiHego3QpR/jf0dKFLcsWnCqULPQ4ZLzLxPD1d0QexGRqZArmyAiSe344dIbUxYJAjTIsXSspw8YEITOCgb9UDznsDcNtzJIoOrMexRDmAQtw8egf6dR7D6/hxuIfVRHuHWBzZdRWsz5tElsOx9djPMNg5FrP80tVfLsPYGt1HTcLUiV+jZ1OlwSm8iaN39FHnsReOH3dHWM32cIg9gl1XWWfjQx/mzT7Fwj3LYe09Hb/6pCt9AlNBf7h4BAYmgNO3Qg/nvQi47YmRRQew/lii8gkEBAQEBD4ytF+glH4bmUAiM3w2pAcM8sKwZc9VqN38AMRNYG9rDO6RP3weSABIEH2/5NkU5WMB+rat0bKaHPH+HgjIBSB/iecZqp97VLyNPlq0b41qyENeHoFevUI+DODg1Aqq3z6W45n3bMzyF6HKvR2Y6zwRXy/5G4XFUZBnnIVPZBcM7VV6cwJp55byPINiiiHz5qLNrfVY5PtMaSGUj0jfo7icpL69ar81VhVKKDbTQ4sOjkg5vBRbQzIhyb6Hg7v8kBC4DcsuWWDEN04wzn2JQiJICgpVnrehjAvYc/B28YJDFxZdu6Nl7dowMxFB/vw0vPK+xMrZ0zF9+nRMn+6MVfOGQeK9Hd6ppSs1cFzxggmASbv5OLa1C+76BKt9E6gYuRwgOaNLcjw/7YW8L1di9vTi8zmvwrxhEnhv90bp6QBATiAilRApIMiJICdAt8kU7FjzCc7PmoljxT/GVmF/KAMX9hzE7eL1kK5FV3RvWRu1zUqXoAICAgICHyFaLVCKUu7B78oD5BJBdu8E1mzdDpdVv2JU98+wLqUO6ukCUP5qrMgcIxf+jl417uHPQT3x1ZT5uJBTG9mP7iHmFUGeEIprccVXjJpfYdnKIbBK2o1ven2J7+YfwN3MZATfeQo55eBJWLhW29T6egVWD6uCMI8j8Dx+Fbk9FmP9D83LnrsAIHmwFRO+P4T74T7YuXkzNm85iqQazVFyMyLrrA8iuwxF6foEMkRfdIOX9xH439e8WaTvOAfevnOgv3sU+n85Cc6/LcGK1fvwsOEw9GuQgwd/ByIuKwJXLj5B5n0/BMRkI+LKFcSmPIJ/QBRyI6/i7IMnuHU2FInP7+NSQDju+wUgJjsCV67Eo87o9dg9shAuAxrDuu8aFPQdBgf7nuitcxSTvvgOGyLEMH9xFe5Xnqk2TGSMgpur8f3MuVgw/ydMnX4WNhvXYQRCsPvHZbickYEnKSWrg5dIzBOhatYZLJu1EVej4xDscRKXLvjB7UY8FI/gilB/5A4c+70Tqqk9J5sXew2H/MKR9/QGvE/dQulhIcfzkN34cdllZGQ8Kfv7y0Tkiaoi68wyzNp4FYkyxTMkd057I+BpPiL+PorrcXklB8c/R87gbu4zBJ06hVspQP1vtsClzy3M+mw0lu0+WHF/EuUwLriJ1d/PxNwF8/HT1Ok4a7MR60aZlTRUQEBAQOAjRKsfaqsYOeTZBzGk7hQEjvDGi0NDFX/OS8Gj6CxUb9IMllXKXwsVpT/G4+fGsG5eH1V5Nq14GwkyYyORKKmDZs3qaN6WeR0kzxETz8HKlnGbR0BAQEBAQOCdoPUCReWZif8QWoZHQEBAQEBA4C3C/BxCQEBAQEBAQOBDovUnKAICAgICAgIC7wvhExQBAQEBAQGBjw5hgSIgICAgICDw0SEsUAQEBAQEBAQ+OoQFioCAgICAgMBHh7BAERAQEBAQEPjoEBYoAgICAgICAh8dwgJFQEBAQEBA4KNDWKAICAgICAgIfHQICxQBAQEBAQGBjw5hgSIgICAgICDw0SEsUAQEBAQEBAQ+OoQFioCAgICAgMBHh7BAERAQEBAQEPjoEBYo/3XkafCYOQizPBLAqb8mICAgICDwgRAWKP91si4hUDYGPw9vCF311wQEBAQEBD4QukuXLl2q/kd1ip7dR8i9KCQkJiIxKQ3SahaoaaijvlmleRVzEfv3BkG/gwPqiIDC2AD4386BeSNzGPEcXp4ZgF0bb8K4U0uYvcHySvYyG/mGhtAHIMvPg0xPH7oAZJmxCH+QhEKjWqha9BK5+kZQ7WohMjMKYWSsX/anvATcDY1A9NNs6JrVQTVx8d9fxeNOaARiEpPwLN8ElrWNoQMA+Um4F3If0YmJSEp6ipTMAuib1oJJyX7KFGYio9AIyqdDbhzCwh4gNjERiSr/PUWOVIKURw9Lj/0s/SWkhqaoYcRefsgLq6JR59awqW6g/hIAGTJjw/EgqRBGtaqi6GUu9I2AqHPuCJI0hm2tlwg94Yu46s3QoNobDMabIM9EwK6NuGncCS0rnRCvEHNxP/YG6aODQx3kq+WjAA+vYnBx/14E6XeAg0qg5MgM2IWNN43RqaVZ+e9+5NmI8D+CfQdP4B6aon3j6upbvEMq0U5e8hB3+QAO3DJBO/valT5GXtxlHDhwCybt7FG7sjt/KJhzLR8xAWdxO8cMjcyNFPWtkrz3WDD78S9G/hz3zl9BnF4j1DdVq/N5cbh84ABumbSDfc3sf12/tWqlXi0rGP2zAAMGLUGgcUNYVNVqt/KRpyPm+lFs2HQe8TIAyMOFVb/CI60Kyr/W6UBHJHqtiVBC/q2j2HYhGQQ5Ui7sxYGwTAAc4o5PwzDnQwh7HAaPxcPQrsfvuC5R3VeeeACTRrnggUzpj4a1Ya73CDsndkHPH04iRV78dyNzWEh8sHTLI9S0qF4WbEMzWIrP46e+o7DmWhyeXFmPYY7tMMMzXu02ixyJByZhlMsDKJ+uKHgrluwOQGRsDK5tGIOBv3riSVwUbp9agWUnCmGpdwE/9xuJvy7HIe6OJ37ubofu884hraRdyrw6h/kTtqj2BwC4OByfNgzOh8LwOMwDi4e1Q4/fr0Mii4D7qvmYPG0DwrNvYu+SnzDmZw+1nd8vOjoiiEoTQo6sjCywuqqOPD0G149uwKbz8ZBp5ON/A3lWBrK0CVYpcqTHXMfRDZtwnhUoHR2IygaDBw7RO2dgW/5wzBxigjNLtqpv8E5Q6atW7eRHnhIBn20rsfXKs8rfGpWnIMJnG1ZuvYJnld75faM6n1TnGoC8i1j183GkmCjVt8rwgWKh0Y9KUPk5827hYg9i/p8hkJsqv4sFADlSInywbeVWXCkO7pv0+4NAWlLgM4EsGv9AlwvVX3l9uIRN1MtqPJ0uICLpfTrpHka56hu9dQrp0uwhNH6tO93NSqFd4wbTnG1nKTYviOa26kqrImXF22XRmQVLyK9AeV8p3V3ejWpWtaUfr6m8QESFdMH5E6pjakZ9N96n0jBlH6TfFgdTkerGRHnH6SvTFjQvuIiIpBS+tA3pW0ymM8qHld6l5d1qUlXbH0n5dEV3blJIHhGRlELmtyTT4ccoj4hIFk+BgQlEeZ40qlYz+uWG4qyvzkwmK4P29OfDkr6VwN+foqC51KrrKioLxxlasMSPCoiIZLG0baELRcmIqOAiLV3so7Lvh4RLO0XOv3kp4lEhHCVs6kVW409TgXo+/hfg0uiU82/kpV2wyuASaFMvKxr/uoHiEmhT7xY057rGrHh3vG5feZFR5KouZDPjUtlcrwSyyFXUxWYGXXqdnd8jFc0nabgXHQ99s6r9b4kF0bvIozcn6/IxOhWvXtuLkUXSqi42NONfEVxNtLrFAwCyJz5w+VsfX/7wGaw1bkXk4uHp/TjqfxFX7+bB0qEpaqhvw6Uh+IQHfM9dRoSsERwaVoVOTjAO7UtFR+ehsJMXITPiEu7qtoG9uQypoV44cEOG+nkXsGXXOaTXaQN7Mz0UJt2E+5EQ6Laxh7kI4NKCccLDF+cuR0DWyAENq4qQ+/A09h/1x8Wrd5Fn6YCmKo0RoYr8DvZtC4XZoFHoWOSLLW7ZaDOiM3JPrMDWK3I4dO+IxtVN0KiRBQxq1UaNkrcGeZew+bQlRjW5gi3B1pg4vAWMSo/LIS4gCW2mNMDZnzcj3mkU+jcxgk5ROC4F1kavXlaqz3hIH8Brwz+oOXYa+lrpQSfyBDad1cGgOV+jZfFCOO/SZpy2HIUmV7Yg2HoihrdQnE23bn1Y6QGAHM8u7cLhjG74eYQD9ESmqFevOiB9iBMbr6DaN9PRv74uJI9PYcvJPPR0HoeOpZ2poD/59+C2YiuuyB3QvWNjVDdphEYWBqhVuxqe/nMWhR1Ho2OdfNw7fQt1hg5Ho6ply3JJaii8DtyArH4eLmzZhXPpddDG3gx6AJAfi4tH9uHI6RtINrFFCysT6IBDWvAJePiew+UIGRo5NERVEZAfexFH9h3B6RvJMLFtASsTQkbYSbifu4Gw2+HIqtISjU2ScdP9CEJ026CZzg2sHTcJG+9JIJYaoF7bukjxLS8vCTnBh7AvtSOch9pBVzkfxZptba4XgQNrN+DwlTgY27VBQ1EMzmzfgrO5TdDRPBmn9x+F/8WruJtnCYemNSCWpCLUez+u55ggym0f7lVvh5bmYsU7m5Aj2Lb5BJKsusFeEgjXzVtwPscOnawLccvrAG7I6iPvwhbsOpeOOm3sYaan3G4APDGTpQTC7bAn/C/dRlat5rAzM2CPRzMgaO04TNp4DxKxFAb1HFE1+iT2X8+BSZQb9t2rjm4tayIl0A2HPf1x6XYWajW3g5kBAMpB8KF9SO3ojKF2ygEtRNJNdxwJ0UUbe1Oks+ZwzVRc2u2Cgz4hSJbJkANLtLWpCTlPu733X0eOSRTc9t2DcYMi3Dh0DfmNCTd2bMfJJ8Zo0VIfEW7bsds3ATUcHVDXEJrzv3oWrqv0tSUMH3kWt9MEwbuXYrd/CIJvBuDqeR/43pKhf5e67JrGpSHI7QA8zocgNvoWQnT7YcYga4ghY8dKBQ5pQW444HEeIbHRuBWii34zBsFazMp15be5ctW8N66FF2d3YPOJJFh1s4ck0BWbt5xHjl0n2JmqfY4hScQ1Tx8EhgXhTqoOxJJCoGoNmEg05yFlhOGk+zncCLuN8KwqcKz6UHU+tTTEI0/FXLM3FwGyFARfCcOju9dxO6sWmtuZwUCSilBt85cZi3zEXjyCfUdO40ayCWxbWEElFIVJuOnujjuiKog+vgXHQvJh6WCLWnqMcVcMmOY8kSSV1gx7c5HGPG9hZQKpVnOmLWwM4jX2VY9j68a1SpsvT/0HO/7ahOMBKTBt1gr19OLh57Iep15Yo4tdjeKtJEi7dRKu1/LRmG5gx/aTeGLcAi31I+C2fTd8E2rA0aEuDKGoUQE3QhB2NVCpngJcWhDcDnjgfEgsom+FQLffDAyySFHtN+OaLOLLY3kGwk6649yNMNwOz0KVlo1R67U+Mqsk6isWPgp8JpJlk5nMT1AK/CZTk8F7KJ1Lp8PD61H/bU+JU95AFkeHpk4kl4g84pJ30MDaXWlNpIy4xJJ3rByl3dlHY20taPzpAuIywun4lBZU1Wkc/bX9KB36rTvV7b6OoiRpdGffWLK1ULzLlcUdoqkTXSgij6PkHQOpdtc1FPnKjyY3GUx70jlKPzyc6vXfRk9VGsNPwYMDNKmVKelVb0ZDF3nSA5U3BhylHJpJv5zJocKbv1Bz0360LV75wIV0ccF8OpmXR7dX96TaVkNpb7SUKPsQzWN+guJGX5vakfPlLMqJO0M/tTWjFs5nKbPkdS6FDs38hc7kFNLNX5qTab9tpHI6Is1PUErI86RvalnT2L2Xye/gUvq6YwcavSVU7dOpivpTQA8OTKJWpnpUvdlQWuT5QLtPt7gMCj8+hVpUdaJxf22no4d+o+51u9O6KBmRLIb2z55HJ59KqSByM/W3cKIloYUUd2gqTXSJoDwumXYMrE1d10SSLGY/zZ53kp5KCyhyc3+ycFpCoS88adKYnZTCcZR6cgGtuJCvkjdERNmug8lshDvlaZOXxFGi8icopflIPG0tohde31IDp8V0V0pE9II8l6+hoIIC8pvchAbvSScu/TANr9eftj2VUsZ9D5rmaEKtxm2gDYtm0B/+6UqnjqMNPevTpDMFxePYmhzn3qSU8OM0pUVVchr3F20/eoh+616Xuq+LItX3RzJmzLhkd5r0xXy6ns1RYeQuGmLXnVaGJPOPR7YrDTYbQe55RFzGffKY5kgmrcbRhg2LaMYfZyjZfRJ9Mf86ZXOFFLlrCNl1X0lhikAxP0Hh0u7QvrG2ZDH+NOXxzWEZEUnv0ZK2LUs/4eNr932PaeRo0orGbdhAi6YvoB2u06m1cXuavucInTq9gYY1bEifL9hCrie8afXnDajVglCSFvDMf+W+KrWzgEsjz72elM4RcS/86Ht7G/rWI5mdO9wL8pv1GX3nnUwyaSztGmxO1jMuUSFx/LEqiw698JtFn33nTckyKcXuGkzm1opPDZi5LlXaNVs97wuJi9tAPetPUnziKg2h+a0daW6QepXJJv/p7WjUkXTiCoJpnqMpdZyxn248jWLk9gvynDSGdqZwxKWepAUrLiiOUDqfVGs0ccnkPukLmn89m7jCSNo1xI66rwyhZK3yly8WMorZP5vmnXxK0oJI2tzfgpyWhKrslxK6nUY1rkNdJy+m1Zv/oG9aVqd6Y70oPY817qx58lC1H6x5Hpym1Zxh7ssTxzJkFLNtANXttam4nmeQ209zyS+nbAsuM4K8Z7Qm4/bTac+RU3R6wzBq2PBzWrDFlU54r6bPG7SiBaFSnvNLiXvhR7M++468k2Ukjd1Fg82tacYltVrJvCZLePM423MSjdmZQhyXSicXrKALjHXAu+CtrIH0P5mCrQt74sUFPzzIBTKfZ6o8AyCL2I8t0S0wuJkxRJZTcCj4MCY3Vf48QQRzx4Fo30DRHFFNBwzs1AiGTQZh1vTRGD1+AKxT4/FUbg7Hge2h2EyGiP1bEN1iMJoZi2A55RCCD09GU6NPMGXrQvR8cQF+isYgU8v7hYb247EvJAIXlndB6p4x6NBpJnxLHtzgHuPI1Sr4tD2HArsRGGEThH2u91WeDQEAiIzxyS9HsbNfBH79ZhluvCL1LZSQIO2WDzwvpKPj2psI3DwQJWto7vERXK3yKdpzBbAbMQI2Qfvgel/jbOWgAx2dHIQe2IEH7VZg68y2qKL8coX9MYT9+H0IibiA5V1SsWdMB3Sa6ct+jkUZUU04DOyERoZNMGjWdIwePR4DrFMR/1QG7vFxuIblIfPycXiGGKLv5H6wyL+F/Vui0WJwMxiLLDHlUDAOT7bG4+OuCMvLxOXjnggx7IvJ/SwgkRhCJ3A1xs3dj2inn+Hc0Uglb9SpKC/Lg9lWSRFqfT4T30jdsS+gEFyCL6KtvkJbQ318MmUrFvZ8gQt+D5CLTDzPBGq2/AydrfXRuN9UzFm+DQs/NVM6gx7EumVvDfXEugBEqOkwEJ0aGaLJoFmYPno0xg+wRmr8U9U8k0UwYtYID/euR0CD/mhXXQQDu/Fw7pOEbTtvw4ZnPJQR1WyJzzpbQ79xP0ydsxzb5jXE3vUBaNC/HaqLDGA33hl9krZh+8VClf2UEZk7YmD7BhCVN4c1UljG2+6mn3WGtX5j9Js6B8u3/4nvR3aBtYEFOo0egyFfTMXQ1nnQbzkJE4d9iYmD7ZEWnwiZfsXzX7mdEJnjq8lfwQyJcPvBGTf6bIfL15bM3JFGu2L1eWuMGmQJXXED9OxqAzEAyB5WHCsuGq6rz8N61CBY6orRoGdX2IgBgGPnekHZrtBVz3sDQE+MsvTRg5j1DLwsGjcCX8LMqhpEho5o72gE3YZd0falOyO3JTDUCcTqcXOxP9oJPzt3VDuYao2WPdyL9QEN0L9ddYgM7DDeuQ+Stu3EbRst8pcvFtxjHHcNQ17mZRz3DIFh38noZ6H8EKAIdT/pjzZWVeEwagHmOi+E6+Zvoe/vhWtyxrhLWPPEVqUfzHkuM+KtYcow960wjrpoPGEevk5xxY6QIsiTTyHUdBj6Vi3bQlSjBQZ2toaBRSeMHjMEX0wditZ5+mg5aSKGfTkRg+3TEJ/IU08lrxDtuhrnrUdhkKUuxA16oquNWHP8WNfkRo9581jXUAeBq8dh7v5oOP3sjI4anw6+G9iVXWuKkJmRC3lBIs5v34GQ2gMwyNEUINWLMpfxApnP05HOAYAYZo1MgVz1S4UOdHTKCrbyv6GnC12SKy4uOjpQvMQh40UmnqenKx5SE5uhkSmQKytA4vnt2BFSGwMGOcIUhPKWCKVw8QgMTACnb4UeznsRcNsTI4sOYP2xRABA4c2juKNfB4+9juO4exhqtndA7JFduJqvfiAAIksM33oMPxvsxNhZfkhXf70UY1h3H4VJUyfi655NUZajhbh59A706zyG1/HjcA+rifYOsTiy6ypYp2OjD/Nmn2LhnuWw9p6OX33SVS7OFfWHiw9EYAIHfasecN4bgNueI1F0YD2OJaqPGwMdHaWHmPWgq0uQywEuKxOZXF10Gj0WY8d+h1//WIEpbQvxIvM50hXJAbFZI5giG1mZmeDqdsLosWMx9rtf8ceKKehgMRguf29Ct6dbMbRVHyy8mqaRN8pUlJflwWxrh6qAfltMnWAJn53eCPBNh80Qa+hCjoLE89i+IwS1BwxC2akUbdMRVWaaleS3Aj1dXZBcLeZcBjNmKc/SkF9QcmUTo179uijIeQWOZzzU0dHRUTxEBwBcCp6l5aPscPVQv24Bcl6V/ySjjtK5eOewClz57dbRQVn4lMdaBF2lp/3EIhGI5JDLtZv/yu0EZHi0/TssiB+DPav6ogZP7shioxAnK9uv9FF9bWIli0VUnKxsbEUo3ptj57rSBQtVWHmvBeKW+GJ4XYR6nEdiSjCC0pwwclAjgJnbFhjs8jc2dXuKrUNboc/Cq+pHU4k/l/IMafkFKOtyfdQtyMErTov85YsFl4XMTA51O43G2LFj8d2vf2DFlA6q+5ZQvK9+s2awBgcZa9yZ8yRXtR/MWFTlrWHKsPfVIo7G3eD8XS24b/BAkOcjWH3VDuqPt5Zd5wCIdJUebBVDJCKQXM5zfiPERsVBphFcqPabdU3OTubN4yqDXfD3pm54unUoWvVZiKsVvlN9O2hfOUkOkstVJrsk0h0nwgoRvG0ZLlmMwDdOxsh9WQgiCQoKy1abei06wDHlMJZuDUGmJBv3Du6CX+lXXZRQvoCwqkoxis300KKDI1IOL8XWkExIsu/h4C4/JARuw7JLFhjxjROMc1+ikAiSgkLNTzrUoQxc2HMQt4sv0LoWXdG9ZW3UNjMB5M9x2isPX66cjenTp2P69OlwXjUPwyTe2O6dWlp05RxXlsQm7TD/2FZ0ueuDYLVvAimQQw6CnNFP+fPT8Mr7EitnK841fbozVs0bBon3dninKsdNDiICaVx4CXJSHFu3yRTsWPMJzs+aiWMJxQVTi/5QxgXsOXi7eEGkC4uu3dGydm2YmWiTMurtUaDfrB1axG7DnHX/ILVIgmcXt2BvcCN0cEzB4aVbEZIpQfa9g9jll4Fm7VogdtscrPsnFUWSZ7i4ZS8Cknxx8lFXLHILRdBSM5xyC1AcWKn/Ih0dcFIp5LnpuLSl/LwsD2ZbA/IA6ML626nocGMhlma1x6e1AEiCsW3ZJViM+AZOxrl4WUggSQEKZWo5rYzICMaGBcjMyAe4NETFZaFQokgUnj3K0GvBiFkm2vTpArrujxuvAECG1DQOPQd1hxHfEUU60OGkkMpzkf2SA5Qv5gZt0KcL4br/DSgOl4o0ricGdS976oqN0jF4TguQYjFBAGBQTrsZ4dP4gyqSYJ75X05f80P+xOR1csxx/R0dTDgk3Qll1jSptT1sXpyH+5UMyAFIpFJIJEXaxUrcDA42L3De/QoyFDtDKpGgCPrsXM8r2xWZmnkvMjKGYUEmFOkThbisQhSnjxJimNv1x7AeRnh4T4QJbqcwq4WYJ7eT4HvyEbouckNo0FKYnXIDVOZTNhRhU0TNoE0fdKHr8FcMGmSpaeB6DkJ3o3KGvQS+WOg3Q7sWsdg2Zx3+SS2C5NlFbNlbPMeVoUIU5ivOIo2LR07nvmh7jzHusiZoqzFPUoqPodifHYs8/uRVyqN8SyfGvuw4qqKLphN/RM/QRZgWYYev7Fgff1WY6jxtL0IzBxu8OO+OK4rgQiqVQFJUvFPxQZnX5MzWvHmc6XsSj7ougltoEJaanYJbgATyjHBcDXum3KS3jjZXGxQm3MRxnzC8SD6LVTN/xOzZszFr6nB0GXIGhu1qwbZnb+gcnYQvvtuACLE5Xlx1xxWldovqjMb63SNR6DIAja37Yk1BXwyzy8WDvwMRlxWBKxefIPO+HwJishFx5QpiUx7BPyAKuZFXcfbBE9w6G4rE5/dxKSAc9/0CEJMdgStX4lFn9HrsHlkIlwGNYd13DQr6DoODfU/01jmKSV98hw0RYpi/uAp35cbwIoJxwU2s/n4m5i6Yj5+mTsdZm41YNwII2f0jll3OQMaTlNLFyMvEPIiqZuHMslnYeDUaccEeOHnpAvzcbiC++JNdUf2R2HHsd3SqpvSWAgDyYnHtkB/C857ihvcp3FJarMmfh2D3j8twOSMDT0r//hKJeSJUzTqDZbM24mqiDIAcqXdOwzvgKfIj/sbR63HIKz72P0fO4G7uMwSdOoVbKUD9b7bApc8tzPpsNP44dkGL/iRCJjJGwc3V+H7mXCyY/xOmTj8Lm43rMEr5LgWTl3jkH4Co3EhcPfsAT26dRWjic9y/dBOJVb/Gur3jQK7DYFfPAZOuNsMXPRpj9PrdGFnoggGNrdF3TQH6DmuOWl+vw95xBNdhdqjnMAlXm32BLgZp8Fk2Db9vOYhzz1vCeVov1bzJB4xadYbD3XWYsCkUdXqUn5fyrAf4OzAOWRFXcPFJklI+RgO1GG3tZgIAEJkNwfcj2qPPkK4wBgCxLXr21sHRSV/guw0REJu/wFX3S4h84INrUfm4f/Y4wtLVF+TV0WfUADxa2BufTTuE1BqWECf9g7MXfRAQlYvIq2fx4MktnA1NxPP7l3AzUenqI6rDjtnw9dg7Ih4rxv6I5X/9iTPmi7FpnAke842Hbit0driLdRM24UbSA/hci0L+/bM4HpYOOWph+Pq9GBG/AmN/XI6//jwD88WbMM4SyHrwNwLjshBx5SKiFdcnAIA88z78AmKQHXEFV+7dZs/hmxF4fN4b1+OScPPkKQQnFLLb/a0xHvlcQ1T+fZw9HoZ0+Ss8PnsNjwue4NrpcMTe98W1qFd4cs0P92Pu4PT1aOQ8uoZr4o7s+W+k1NdEpXbe/xuLJ61D6iedIL62DztcluO37cHMmvaP3hS4bOyC27O6o9+4eTgULoNBahDORxvxxEqpvOo2wlSXjehyexa69xuHeYfCITNIRdD5aGauF6eaIq4y9bzvA1Tvg1EDHmFh788w7VAqaliKkfTPP4hXXqTIMxHovRPrF/6ChYvn4ruvhmLiqr/xrAYjt7sYIM1nGab9vgUHzz1HS+dpAJTn0w0kKs81o+FYv3cE4leMxY/L/8KfZ8yxeNM4mDz2rzh/eWORha/X7cU4csUwu3pwmHQVzb7oVrZfKQW467kam7ZuxB8expi3aRIaN2PU/WscvtGYJ3aqNcOIEYtuMv4apjRnAsVfae7LE0cNTAdh5lgbfDJgOOqrX4VfPcbZa49R8OQaTofH4r7vNUS9eoJrfvcRc+c0rkfn4NG1S4g2ZLW9GhpNdcHGLrcxq3s/jJt3COEyA6QGnUNYSFm/46syrsnN6/DkMSBL88Gyab9jy8FzeN7SGdP66CP55GJMnO+p1vi3iw5pvv0WEBAQEPi3I3uMI+sCYDu6N6rlvMSr3ExEe55AyvebMceW/a79o4eLwdpeAxG3JALb+7ynByHeCdk4vWQrqv22EL2M1V8TKEF97SYgICAg8H9A0TUXrPS+jahkDqYWVqhjUoBM887o2+hfujgBAHCQy+XgtLtT+/HBxeLUX0vw18qFuFhnOLoLi5NyERYoAgICAv+HGPRajkM/1sGNbfPwww/z4HJFB/2dR8NB44nMfwsSJAVfQ2b9VtAJv4zHueqv/xsgFGbEIV48BPOmNRf8ZxUg3OIREBAQEBAQ+OgQPkEREBAQEBAQ+OjQaoGSn3QPNwICEBAQgBs3biIo7D6i0/IYv2nwDsiLw+XdG+EV+X5uOsozA7BzpRsevp/TvSZ5iLu8Gxu9Iiv++vS/gLy4y9i90QtvbYhfxeDirjU4Fl6ZA+YjJsAHFyNYP+amGu9/R44AXNYD+G7dAO8n5f92yfvnFWIu7sKaY+GQFVvNd605BsVwyZEZsBMr3R5q5PZbz5MSVGoM//nfBuzcKS/33j78eaE6LpWB2a/8GAT4XESE+i/lfWjkmQjYuRJurzOB32TfcsiPCYDPxQiNHxWEWt4z4/wRozq3K49WCxRDM0voXfgZ/b5egXNRT5H46BoO/twPLduNxoYbit8EeDdo2hjfPW9iS9bepPsmvJFJ9WPjrdtMK7Dt8lGOlVUz3m+SI+8LDumx13F8405ce1aJOLwHKrRIs0zDbz1PSmDUGNb53xqM3Ckn994+/HmhMi4qr2iDZr/yLq7Cz8dTYFL93feqsryJ1fdN9mWTh4urfsbxFBNohEoj7zXj/CEp1+zMmtuVRf237/nI8xxFtZr9QsX6DCLKozure1FN889pTyyPSfFt8C+yMVZk/nx7vJlJ9WPjrdtMX8O2W76V9V8ab9kj+rOTLc268rG1+vUs0m89T0r4wDWm/Nx7B/Dmheq4vBlSCvc6Tu+zW/9apOHkdVzdlVbGO8v7N0ULs7O2c5sPrW3G0ocnsPFKNXwzvT/q6wKAHup+YoWE3X/ASz4IU3tbQsSwQiqv9CpjHmbaGK0L2IbRYgqTbsLd/Q5EVaJxfMsxhORbwsG2FvT4bMsMm6NEzZasaRmVMk3LzRCkZtK1gUG8+r5K0WDaISswefKaVBn7kfbH5xuDEiSJ1+DpE4iwoDtI1RFDUijHq6iT2MWy8dqZIk/jeHKkhnqrmXJr8dhMGWMl57MCA2D1HXy2XXYOMq2sio2Z8Zap5YhmfICqNUwAhqGXjYSZU/ZmegCPXVSSdgsnXSsw++q/QMABN+R26oUinx3wvMehgWNjnnhKNOPI9zYt96GGuVnGO/dYcwjlWKSVjcjmEPFab9lxkZdjklWHXWNkakZm9bytwowTM6+0qC/M3NPaCKyAv+6x7dYgnrwQq9q9xYxxVpRNzb6qW+ZlKcG4EvYId69XYNUusZxroMgD9zsiVIk+ji3HQpBv6QDbWsSoJQzrtl46gvevxYbDVxBnbIc2DUWIObMdW87moomDPh6UWJlN08uJdcUm5IpqpwqMfBBBhpTgKwh7dBfXVSzY7Ly3SFHLHz5bNVIQ6HYYnv6XVGtaMZXOGQ2jdh0ku05QMTvXTfHViAWpG+Iri/qKhY88z2/UPkEhInpBuwcakNGQQ5TLY1YsoTLmYbaNsZBtGC05AZdCodtHUeM6XWny4tW0+Y9vqGX1ejTWK53yWPuxbI4Pn6nakhmW0eA0fkurskmXta+yoVTTDlmByZPXpMreT+vj89lfSxvqT9PbjaIj6RwVBM8jR9OONGP/DUqRsmy8QVTEOF7ic01TLttmyjIQJ9JzXiswT594bLvMHJSwrKxhVMAXb07VqM0Xn+QkhqFXVW9bCq+9W8Zjyc3LpAjvGRWbfWWPaGUnS+o6ZRmt37ycRjvWoIbjPOjxPfV4prDjyIRhbk5M5p17EuY84LdIq5iGea23PHEpyK7AJFsGX41RNTKr560vM07MvCqquL68mRG4mHLqnpRliQ4rIGLmhRelc8rjwhjnpxy7r2qWeT47Na8hmAGXEkrbRzWmOl0n0+LVm+mPb1pS9XpjyePxPY1aws4FIu6FF33bwIkWK9Tj9MJzOa0JylOy+uZRBm+stTAhM2qdSu1UhnW94bUH8+R9vlrt4bNVJycx8iqs7FOx18kZhlFbxezMEwsVQ/xroH7Hq3LIpZDKAANDQxDTrFhiHaqMeZjjsTFWYKcV1cUn/dvAqqoDRi2YC+eFrtj8rT78va5BzthPwrI52loo2ZLZllGZkTaWVva+yoZSDTukuHyTJ8dnUuUxgGp9/Arsr7LoGwh8aQaraiIYOraHo5EuGnbtgLoilo0XzONlm6qZcufbsG2mzDHOhimfFZin72zYOdjoMcvKuh1/P+CJt0jZqM0XHydkujIMvdsvguUC5jX/FvJYci8bocXAzhWbfQFApwo+GfMbfnJehP37pqO6nzfuNVWLZ//MSsSRYW7ONueZe5cRXsE8UEfFNMxnveW1B0srMMmWwF9jVI3M6nnbmBGnfHZePaqovryhEbgE3rp3GXdYluiSHNTIC09cVUlOxjhnSph9baqnapnns1NrY9UuQVT3E/RvY4WqDqOwYK4zFrpuxrf6/jgR3lRr67ao1ueY+Y0U7vsCUMglwDfaCl+1NVay+pZjD2caw1VNyKxax3rIFaikPfjvB+y8V6s9fLZqp0xXRl5tR6lc+3VyhmXUVqYSsagMb7ZAybmJoAcGaNe9A/SYZsUSJWdlzMMyXhsjyzDKQrG5Ppo1swY4GXM/ps0xV65iS+azjFZsaeXftwQNO+SzjHJNnvwmVbYBVOvjsyygpWcFxC2/wPC6ofA4n4iU4CCkOY3EoPJ+iZLneCqmXD6bKe8Y81iBefrOhp2D2clsK2tODE+8oXiIsqTt7PiA39BbdhQVmDlVriVXC7Nv6V8U6De2Rj1dgNTjWak48pmbFajOPSmyK5gHLEpNw3x5whsXo4pNsgBQTo2B8vnV85YZp7bsvHpeUX15QyMwA9XYS5CqZQ6W5YUyrHFmz6FcufKcqMBOXXp8tiFYk+I99JuhuJyrjQlfLnAA9NF26gRY+uyEd4Av0m2GwFpXccyyucMTay1MyHy1jgXzesNnD86JYec9VGsPr62aN69KDlKG1jlTkVG7ErGoDNovUEjVZAx5Ov5eshznG8zG0nENYMg0K5YoOStjHpahKdPGKGEaRtXttFRYCIXoUoq4+Bx07tsW9xj7yZq01bQ5Fsv5FAW3HMsoT+TLzJ/5sHTi2bcYDTtkSONyTZ7iZg5skyqPAVTb4/PaX0tPbA67/sPQw+gh7okmwO3ULLQQg9fGy388pYTls5minDFmLUZ5+s6GnYOZrdlW1p6OPPEuprQ5zPiUY+jNj0fgpTtIUy8WjO5VaMllxaQc8u+G42XfoehhqLYvXxxZbS3H3Kw597rDkW8OlUtxrvDlCW9cCpgm2fz4QFy6k6Z0YRaXb3xVKa5K/2bGKZiZVy+aM2yxKvXldYzA+YgPvIQ7GsnDin0PdOTLQbV9VfKiBOY4y9CkrWZfS5ymin6Vk/s8vWLmGQCAUFiYr9hLGof4nM7o29lQdUx4c0HRS13rbzG1ww0sXJqF9p8qPY+klP/MVjGN4aomZL5al6ORb5W0B/d0ZOd98bHKms62VZeXV8pUKmcYRm1ls3P6pS3MWKhcnXnHmR+tHpLNi/0HR/fsxqnbqSjKf44nwRdxYt9+XK8yFlt2zUbH6jqAcXN0bJYBn9VzMe/Pg7hdeyx+m2CPqjoAoIMqLdqj6TNvLP9lPjaceY5OP/6KQU2Bx4f/wibfSLysIkbatVDkNO+Lr0b0g8X9nViwwh1hCS+QHBuFbOOm6OlEOLN2E3wjX6KKOA3XQnPQvE9f2NVQrLMo6yYO7LiIZ9ICJN85h+vc11g6uxOsZI9x+C/V/ey/cMbYdqnwXv4L5m84g+edfsSvA40R6bETO05FwqBdXwz74lM0y/DB6rnz8OfB26g99jdMsHqKU3u2w/O+Dhy72yDvwmHs9YtD1c590K9RNv522YPzRXb47Ltv0SFLbV/7qsUrVjlyr6/Ed5vuoigvDc91nDBy4gAM7NkMGT6rMXfenzh4uzbG/jYBTRUBhMi0FdrWuY+dC1bAPSwBL5JjEZVtjCbte2LoZw5q+41DnTurtDq+jZmUMQZ90NeuBkQA5BlnsWLqEhwNuIWgq+dwyuc6ntVqjy5Na6GWPAKbfl8L/0ccLKql4nayHlr0agOpzxqV472sXx85V4/DOzQPDTp1Ret6Vmjdtg7u71yAFe5hSHiRjNiobBg36YBPGz1XG6uXqF8/B1ePeyM0rwE6dW0Ny9KnN43RvKN6n8ahVoI3du44iUhDJ/Tuaoua+vw5+JlNK3Sxf47Dq3YhOCEeIREmGLPkB7Rt1Jod77Y2KLq4rzRH+tcIYsan7+CBaPH8MFbtCkZCfAgiTMZgyQ9OMLo4Fz1HLceDemPxVatiZe3LRzjJzKnP8cOYTnh+eBV2BScgPiQCJmOW4AcnMZ747MZ2jzvgmnVDS9zA0T2euCdvga7NJbhyeDdOPBDDqV8f2Os/ho/nZUQlPUTAk4aYuWwM6sSdxJ5dnkrxNGHEcQLqB/2m2VYdI0geH8Zfm3wR+bIKxGnXEJrTHL3aZOD0LvW51xH1WnTUmEPjLBLgvXMHTkYawqlnC0guu2LHyUgYOvVG/9pP4bFzB05FGqBd/y8wvF89Rp70wPSJXTXj8okuAlZ+h013i5CX9hw6TiMxoHNdXJjbE6OWP0C9sV9B0Q0RTFu1RR2NGtMEbW2KcHGf4vxO7Wvjvuc+eJbkraUZ7DXiNBGtO3bQyKtBdp+gfdNn5daXgY6dmbnXNOUU9mz3xH0dR3S3ycOFw3vhF1cVnbsWYceQ0Vj+oB7GftUKJcJjdt3riHotusCekYOmumKIX0Wo5cVY2BQ9gFfJuPTpi0bP3dXG2R5fOI9Fu1S1OWT5CuHKdfPzwYzzNkXKqT3Y7nkfOo7dYZN3AYf3+iGuamd0LdqBIaPV8gyErJsHsOPiM0gLknHn3HVwXy+Fc7MUnNqzS3VMuthr5oKTqaLW6pigSe1khIlHYk6fOhBBjsxwD+zccQqRBu3Qwfw+PPcwYt13IAb3s8Mz7+X4Zf4GnHneCT/+OhCGkWX79uvfAOlu6rWzK7BvGL5RyTdAp0oLzXz4zAatWG1v24hdH61tUeuue1n+NJHj7IqpWHI0ALeCruLcKR9cf1YL7fsOxsAWmnnlZFr2UVFlc6baq+tY+d0m3C3KQ9pzHTiNnIjO1gZI+NsFe84Xodln7cGdXq0aC7u2qHvfDbuK53avhL8060lFqD+U8m9GFr2GujWdThc/tq9j/YuRRh6mVXuDKSH2Ed2/E0o3Lx2nOT9soMfsZ9v+c7xOfIpC1tEfXpnqf/4o0batH/fcK6KQdX+QFt34+CkKoXV/eJFyVz7u2GuHZp7JKHpNN2o6/eK/66v9RO8v36SRdHjVXgpOiKVH9+9Q6M1LdHzOD7ShvOJTzIfKGc1xLh/tb/H8G+DkkMs59sNkAq9BEa65rIT37Sgkc6awsKoDk4JMmHfui/IeQ/nvUPn4cIkB8Ipui4lDa6i/9NFRqbZ+tHOPQ2KAF6LbToQ23fio4RIR4BWNthOHQqUrH23stYMvzzi5HPJ/nbb4/eXbG9mqP0DO8I1zeWh1i+dfgSQJQaevITK3CKKaNnC0qa3yvW+B10GMRh07wOShD44f9cCZgCeQ2Y/EjC+bQ/l29X+XysdHVL0BHBwaodq/4K2B1m39qOeeCNUbOMChUbVKPHD3kSKqjgYODmikPCAfdey1g5VnkqQgnL4WidwiEWraOMKm9r+lV+8v38SNOqKDyUP4HD8KjzMBeCKzx8gZX6I5X/Ep4QPlDGucK0KwGQsICAgICAh8dFRiLSMgICAgICAg8H54iwsUlglTjuf3/saZwASU/eyTHNkRfti76ncs3HoJiXy/B/U+kWcjwm8vVv2+EFsvJaq/ykM+Ev7Zj1UHQpX69pq8Z2NzCa9jxnydfd4WH9SqDWhYjd868ue49/cZBCYwMko5R96RUfX1ecdx+RC8sznJqpNaUp4d+D0amd86XBYe+G7FBu8nGr/R8nFQjn27nLn4zuzbFcAyCMuf38PfZwKhXFrk2RHw27sKvy/ciksfxYVYE+0XKPIsZPBqC3lMmFwsDs7/EyFyU+iX/Cl6J2Zsy8fwmUNgcmYJtgZ+6MBwiN45A9vyh2PmEBOcWbJVfQMm8sx43PLYjNW+UW9YBBg21ffG65gxX2efEt7M9vzhrNoKNK3Gbxcu9iDm/xkCuWnJbClBM0fevlH19XnXcXn/aMb7bcGsk1rCbwdmtPedGpnfLlx6LK4f34id155VOibvg4rs28y5qGEhfltUUEMZ7QM4xB6cjz9D5CgtLVw0ds7YhvzhMzHE5AyWbA0sO8ZHhHqm8yBHuu9SrL3M+qFuBSJzB/RubaV6wNwkWE07jCVdqhf/QY5kP2+EG1nApGp7zD8XgDU91Ivxe0aeDD/vcBhZmKBq+/k4F7BGfQsmopr2GNC+EbR4XroCRLBoOxDt6r35kSqLqGYXTJs3As0rIXF6nX1KkKf7Yunay8yfe9cGkaEZWjo0hompAz4dPQIjxs7EH0cu4tjXqfjzy4lwjXurlUADkUVbDGxX7y2MOZvcJCtMO7wEpdOlFLUcEdVEl2nzMOJ1BuEd8K7j8v55d3OSWSe1QoZYaV9s2zO2+NdQlVFvrwg1u0zDvBHNFXqGjxxdi9bo2bLOa77pefeojJnIHA69W8OqZAD55qLIAm0HtsPbTqEKa6h6+wAAuUiymobDS7qg9Eqc7AfvcCNYmFRF+/nnELCmh/IOHw1afItHjufX12LcpI24JxFDalAPbW1qoLACQ6kY+YgNuIGQsKsITDaBbYu6yLy8Gy4HfRCSLIMsB7Bsa4NqaQxzYnk2T1n5lkZAjtR/duCvTccRkGKKZq3qQS/eDy7rT+GFdYfSH3UDAHBJuLTbBQd9QpAskyEHlmhrY4h4hq2UZaKUh7tjY2RzjG/8ALv2nEVanU/Q3EyPaXtlFQq2TVUMVGCFLt9+y7ABi9ntVzGrytJw66QrruU3Bt3Yge0nn8C4RUvoR7hh+25fJNRwhENdQw1rqWZb9ZDGaBvL9lyVNfYVoI1VWzM3WaWPYSoV8ceOZTUu0MJkqpV12FARx4AbIQi7Gqgy5swcsUhRMaqyxlbEY0HW4HWs2iXwxEWskRMmIKZlmHUenjFQh2Fxlb+Kwsldm3EiyQrd7CUIdN2MLedzYNfJDqZ5mnNSnhoK7/3XkWMSBbd991C9XUvUymDE21rMsNayDN3mao1k9U/NGKy2Bzsv2XZg8OWHipHZHCJIkHjNEz6BYQi6kwodsQSFqIoaJmIecy0/5RmJmceSaFNX9PEi4ADccjuhV5EPdnjeA9fAEY1riCFhjFGVRG3mdxmaYycu1+ZbKfu2TNVuzGchfhv2bfnz6xo11CBeva06Ggbh/NgA3AgJw9VAxTZ1My9jt8tB+IQkQ6a4EMOmWprmdbW867AW9UWe+g92/LUJxwNSYNqsFerpxcPPZT1OvbBGFzstv2qs/sMobLLJdbAZjXDPI+I19SqbMHkssySle0vaUstfblAR8Vgvw8oxTDLtn0qWxhJkMbRtQF3qtSleYTvOcKOf5vpRjvp2RETSe7SkbUv65UYRvx2XaaKUUd6hIVS97Xe046gPeS/pQ1a9NlGcjG0BVYfPpkoVWKGpXPstywasjbmZo8wIb5rR2pjaT99DR06dpg3DGlLDzxfQFtcT5L36c2rQagGFFqnZNBltXXzxNm/blG3P7LHXGEkNKrJqZzNzU3lbImKaSiPZseOzGvPYO1XgtLUOa8ZxSaiUJ0fyVY2qrLHltaSqte91rNol8MWF2ZcXDMsw+zzMMVA/N5/FNUVKcRt6Uv1JZ6iAiKQh86m141wKKmLMycTndN9jGjmatKJxGzbQohl/0JlIX0a8C5mmVk1Dt79aG9n9I1I1Oavvw8pLvrnCzg9VI7NCuD2d2o06QulcAQXPcyTTjjNo/40U3uPywmXwGonZx8rTrq5IZfRoZSey7DqFlq3fTMtHO1KNhuPIK1VzjHxD9mkxv5VgjN1TKb/Nt3L2bU51Lr5D+3YJyjWUfR1WNQjzbSO9t4Tatiyuo8zranlWbb7+qLdWRjHbBlDdXpsoXnEhJref5pIf80LMpvKfNGph6tXOMstjvdx+GcY8hslCpv1TydJYgm5jTJj3NVJcdyCkSI7kU6EwHdYXFTjKeNvNNFE21QWgA90GPTBu9OcYMqo3GjyLRQLHsoCq3zHkt6ly5VqhFfDab2UsG7A25mYRarQYiM7WBrDoNBpjhnyBqUNbI0+/JSZNHIYvJw6GfVo8EuWqNk1WWy2NmvK2rQy+sWfbfiuk1Kqtj+iKchMAmKbSpszYSfks0trYO0U1tLIOFzHiaCF5xZMjIhWjKjM3+SypGhOl8lbtEvjs2qycsJBINC3DPHONNQbqYeWzuHaoK4KeWLfs00Y9cfFtJ8aczDZFy886w1q/MfpNnYPl2+bDxmctI97ssdYwdC/8tLR5AH8tKRdmXjbimSt/4wEzP9SM0JAh+kYgXppZoZrIEI7tHWGk2xBdO9TmOW45c1BUEw5MI3Ehz7Euw0ibuiKDQkXxyRj89pMzFu3fh+nV/eD5j7HGGDU+f6Di+a0MY+wywW/zrZx9W3Uuvjv7NgstrsNabfMaVm3e/qhnji4aT5iHr1NcsSOkCPLkUwg1HYa+FV6Iy3itBUpFpl629VPdjlqO9ZLHMMlv/yzbtgTjbs74rpY7NngEwfORFb5qp8WzLjztZpooc9XKplgXunIZOGJZQFU3Lc+mypVrhS6Dab8F2wbM235lM2bxMUtbpKv0IKxYBBEVm0eVbaw8beVrWxnljf1rUGrVdkJ+RbkJ8JpKWbHjtUhrbe+s2DosZcbRiDdHlI/JHFs+SypjomhtvVaDLy7snLDQtAzzzDXWGGjAY3Hlv93PMyd1FHFUSJ355yTfWKtYddXh6V+5MPMym2eu5CCGr70qc1mMll8MR91QD5xPTEFwUBqcRg5CI93XnINMI3H5x9Kqriij3xjWJXpllTHS4tqjDs/YlaBoy5vYt5Xm9zuzb7PQJhbabPMaVm3e/jAyx7gbnL+rBfcNHgjyfASrr9qVfmFGG5hzSxMRdHQ4SKVy5GYXwKYiQynT+qmwzBIR5HKqwHrJNkxqa2kEAOg2xcQfeyJ00TRE2H0FO97qRQo1PfG3m2miTJGD+Rt3TAuowvZaBr9NVb9cK7QSjFODxwZcsbm5BL6LrCol+/C2lecgZbbnAjTtxTf2cmSEX0UY36Pv5Vq1m8K+otwEn6k0gRk7qbU902rMZzJlfguBlSdKsONYxJsjQNkxmbnJZ0llTBRtrdfq8Nm12X1J0rQMM+faFeYYqBvL+SyugAhGxoYoyMxAPjikRcUhq1ACSTlzUtkMyxdv/rEuZ74w+6cZRxWYeZnJUyd7wpGnvQrK2iY2t0P/YT1g9PAeRBPccGpWC4jLq7/lWmdZPS7nWIDWdaWU/LsIf9kXQ4v1ymVjxGeY57c8848dy+b7mvbtkga+M/t2GWU1NB+WThW1lS9eijaTXFFLy7uuMseNtz+a9QXQRdOJP6Jn6CJMi7DDV/wXYjbq93zYSOn2qh5k3Xo4LfdPJJkskXzn9SfbmtWotu0A+v3sM5JmhtOekY3I2Gk2+UblkizRl+b1t6Wa1WqT7YDf6ewzjrIj/WhRr5pUtePP5B4UTwVcCp1dOJh6DXWmZasW0a8rz1AiR5T98BhNtDMkx+leFPE4mFyGNyDTbgvockIBpZxdSIN7DSXnZato0a8r6Uyi5h3qUqRhtKjvWPLgdRNlU6TfIupVsyp1/NmdguILmO0mklKs92zq2dCUqls60ehtYfQy+wEdn9yMDB2+J8/wRxS0eTg1MO1Gv1+6Qz4zW1E9+wE0dfEamt65IXX/5TTFqN8nLYgg14ntqal9bxr7y2/0tZMtDV7sQ1F5Mkr0nUf9bWtStdq2NOD3s/RMvYvZD+nYRDsydJxOXhGPKdhFce4Fl+Mo3WcmtapnTwOmLqY10ztTw+6/0OmYAo3253IZdHfPKLI2caLZ/jGUG+lF37UwpOaTj9G9mHBym9qSjBymkUd4NN3eP45sjVrTzFOhFKi0DxGjrZl8bUsg6e1V1MO6NQ1f7k+JEvbYE5dIe4Y0or6bHqt1muhVzDXaNc6W9Gq0o3G//0l/rVxMc8Z9SSN/2kchGcVBYuSmeviIiKSx3jS7Z0MyrW5JTqO3UVguxxO7XIpwnUjtm9pT77G/0G9fO5Ht4MV0KsiTZraqR/YDptLiNdOpc8Pu9MvpGFId5lyK9PqOWhg2p8nH7lFMuBtNbWlEDtM8KDz6Nu0fZ0tGrWeST9RLzThyfDlyikID99AoaxNymu1PMXmauZlLRFzKWVo4uBcNdV5Gqxb9SivPJDLiwFHanhHk9NUCctm7lRbOWUf/ZBHPHFCngBkXn6gczb5I02jPCCf6aoEL7d26kOas+4eIWOeR8oyB2uTh0unYyHpk3rQVObXrSF17DaYJK89RMkckiztM39rVp1afTqaVLrOoq/1wWvF3mOac/PkonT0ymewNbOjbvaGUxhtvH3oc76Mx1j8fPUtHJtuTgc23tDc0jRFbVv844tTqpDqaeUlEPHWSt71Jd2nPKGsycZpN/jG5lH5sJNUzb0qtnNpRx669aPCElXQumeM9bqHfVGpoakWjDqWrtS6bHh6bSHaGjjTdK4IeB7vQ8Aam1G3BZUooYB9Lq7riE0VPb26icYO+pOlL19KaxYtpd1AGcVwWRRxXGyPW/C70o6kNTclq1CFSbzGXrjl2v5yOocLoNdS11ic0dulG2rLhd3Je5K2o0Yzjq1zbHidS+J6R1MjYiWb7PqaMu8pzkaggwpUmtm9K9r3H0i+/fU1OtoNpsU8Uez5yrHlRSH5TG5Kp1SjSCD+Rag0t0mwrx2UqtS+K2R8uO5L8FvWimlU70s/uQRRfwDGvq/zX4SJ2f9QbW4qUwhb1pbH8F2Je/r9/6j77NJZsrYbfFvaCsfprAgIC/05kj3FkXQBsR/dGtZyXeJWbiWjPE0j5fjPm2FbyHdr/PTI8PrIOAbaj0btaDl6+ykVmtCdOpHyPrXNs1TcuRRK6HmsSJ2HhcC2/bfGhkYRi/ZpETFo4XFWkyAMXsxa9BsZhScR29Cn/i0sfAAlC169B4qSF+LeEv3yycXrJVlT7bSF6VfJCrOUtnn8XXOwp/LXkL6xceBF1hncXFicCAv9HvJHF9b9G0TW4rPTG7ahkcKYWsKpjgoJMc3Tu20h9y1Jexzr7QeGzPJfHB7D5asf7syG/c7hYnPprCf5auRAX6wxH99e4EP9ffoLCxbhh3rKrMBu7CD/3syrn4TkBAYF/HfIMhB3bBtdz4UiTVUfjTsMxbepnaPoaBfD/Hzkywo5hm+s5hKfJUL1xJwyfNhWf/ZeDJUnCzYNbseXsS7SZOgfff2pX8Tc8BSoPFwO3ectw1WwsFv3cD1avcSH+v1ygCAgICAgICPy7+b+8xSMgICAgICDw7+YjXKBoY+JUtUvyGnYraST9UPZJAQEBAQEBAVU+wgWK4sd5yjNxahpBWYZdhuGzPN6ZfVJAQEBAQECgsnyEC5SKTZzqRlC2YVfd8FkB78g+KSAgICAgIFB5tF+g5Mfi4v51WL50LY6FPlf8dLk8A2En9sN17x7sO3ART2SFSLp5FLt9IvDYbzOWLHWB35P8kgMg9uJ+rFu+FGuPheJ58c8bc2nB8HLdgQ3r9+P6MxkAxTG2eT8o/nQkFw9P78SmDX/hrx1/I7b45/6VPy0pTLqJo9u88aD41gyXFoRjWzdg/bZziC0sewY49+Fp7Ny0AX/9tQN/lxwIHNKCjmHrhvXYdi4WSpsLCAgICAgIfCC0W6BwsTjw+x686j8bc78xwMEhn2J5mAwvT8zFpuefYsKkL1ArKhjxyRE4s2UxFq/dhGMPdKD3ZA/G9Pke3s+liD3wO/a86o/Zc7+BwcEh+HR5GLj4w5g+PwTNR03DKBMPfDlyIx6lROLCzuX40zcGMgCF/nPwxV4xxsyejHqXpmC6a7Kq10WejsgLO7H8T1/EyAB5hj/mTNoPwy9/xI+fGyElqfh+TaE/5nyxF+IxszG53iVMme6KZLkcGf5zMGm/Ib788Ud8bpSCks0FBAQEBAQEPhxaLVDYhtICDRNq54afoH8bK1R1GIUFc52x0HUzvtX3h9flcIbZMx8R+7cgusVgNDMWwXLKIQQfngxbC2UTJ9vOq7JAESkbdvktwUyrpZTHPikgICAgICDwQdFugcI0lFbVNKGmlSwdim/A6DeDQhKZzTB7tkXGi0w8T09XSJHEZiiT7JbZL7Wym5YaditpJOWzTwoICAgICAh8ULRaoLANpXmaJtQACQBCYWG+woIojUN8Tmf07e7IMHsGo0UHR6QcXoqtIZmQZN/DwV1+UEh2S+yXbDuvpt20ZN1SSSOp1Br2LPskAHlGOK6GPVM/jYCAgICAgMB7QKsFCmp9jXV7x4Fch8GungMmXW2GL7oZQZbmg2XTfseWg+fwvKUzpvVR6LEL7npi9aat2PiHB4znbcKkBmb4et1ejCNXDLOrB4dJV9Hsix6oM3o9do8shMuAxrDuuwYFfYfBLuc+/AJikB1xBVdiJbDt2Rs6Ryfhi+82IEJsjhdX3XHp0QP8HRiHrIgruPgkEff9AhCTHYErVxLQaKoLNna5jVnd+2HcvEMIlxkgNeg84uv1RG+do5j0xXfYECGG+YurcP9HD1NcNqLL7Vno3m8c5h0Kh8wgFUHnnyD55GJMnO+pHgkBAQEBAQGB98Bb/ql7DjFre2Fg3BJEbO+Dj04SKSAgICAgIPCvQLtPUCoBJ5dDzmneghEQEBAQEBAQ0Ja3ukCRJAXjWmZ9tNIJx+XHueovCwgICAgICAhoxVu+xSMgICAgICAg8Oa81U9QBAQEBAQEBATeBpVaoMgyY3E3LBzxWTJw2Vl4qfKLadqSh7jLu7HRK7IcW/Fb5FUMLu5ag2PhMg0L8gdDpU0fE9rG5z2NYSVt1O+HyvZd25hWhDaW7/8qbyvGfLzP2Ocj4Z/9WHUgFBL1lz56yhmH/AT8s38VDoS+i15VfnxexVzErjXHoH0JLkJmfATuhMcgowiQ52YhW6tfHa9svah8X/6f0XKBwiHu+DQMcz6EsMdh8Fg8DO16/I7rr5Fr8pQI+Gxbia1Xnil+oO2dIkd6zHUc3bAJ5+NlDAvyh0C1Te8MeRYysiq3gtQ2Pu9nDCtpo35PVLbv2sZUKyqwfP9Xeasx5uNNYl+JuSjPjMctj81Y7Rv17vryjuAfBzky42/BY/Nq+Ea9o16pjI8cWRlZqr84row8HTHXj2LDpvOouATLkf7PWkz48jts8HuAxNgQeKz/CeMG/YAjybxnKKWy9QJQ78t/G+0WKJIw7Fz9EF0WLcKUMZMwd8th/DHYXMudVRFZtMXAdvXwfqTBIpg79EZrK0VL1S3IHwbVNr0b5Ej3XYq1l0uEiNqhbXzezxhW0kb9nqhs37WNacVUbPn+r/L2YszHm8S+cnNRVNMeA9o30jq/Pib4x0GEmvYD0L7Ru+qV6vjI032xdO1l8EZcZA6H3q2hTQmWhK/DiG/PotXKfVjxw0gMGfoNpi9YiV8H1USBFrcQKlsv1PvyX0d36dKlS9X/qEk+7rmtwNYrcjh074jG1U3QqJEFDGrVRg1Rsen4yD4cOX0DySa2aGFlovmT8VwagtwOwON8CGKjbyFEtx9mDLKGmLEvZYThpPs53Ai7jfCsKmjduFaxDfkI9h05jRvJJrBtYQUTnVw8PL0fR/0v4urdPFg6NEUN9VGlHAQf2ofUjs4YaqeLnOBD2JfaEc5D7SDWOKYF8kL2Y+2Gw7gSZwy7Ng0hijmD7VvOIrdJO5gn+2L/UX9cvHoXeZYOaFpDjtRQb+y/ngOTKDfsu1cd3Vqaq56f0T8dlTapN1hheD7h4YtzlyMga+SAhlVFgCwFgW6H4el/CbezaqG5nRkMJKkI9TqAG7L6yLuwBbvOpaNOm2ZA0FqMm7QR9yRiSA3qwbFqNE7uv44ckyi47buH6u1aoubzQLgd9oT/pdvIqtUcdmYGAEgtPhoN03oMWeMffMIDvucuI0LWCA4Nq0KU+xCn9x+F/8WruJtnCYemNSAutlG7HfDA+ZBYRN8KgW6/GRhkLUbuw9Nq8VduoRwpIUewbfMJJFl1g70kEK6bt+B8jh06WRfilkac7GGmB3ZclY5aymv3XT2mMqQEuuGwpz8u3c5CreZ2MDOAwgx+0h3nboThdngWqrRsjFoqBbQQSTfdcSREF23sTZEe6oUDN2Son3cBW3adQ3qdNrA30wMgQeI1T/gEhiHoTip0xBIUoipMcu/AWy0HqiRexJF9R3D6RjJMbFvAyoSQEXYS7uduIOx2OLKqtETjWjy5Bzl7WxXkyLzrjb37vXDxfhrSopJg0MwE0ce2YfOJJFh1s4ck0BWbt5xHjl0n2JmKkB+r3iaNTGJsA/68LUzCTXd33BFVQfTxLTgWkg9LB1vU0gPAm3/q80+iFHtziDTqhhVMpNrNxbY2BohX31eti7Jwd2yMbI7xjR9g156zSKvzCZqb6RWb3Rn1jjW3WG3UCKXmNnppofA6cAOy+nm4sGUXzqXXQRt7M+ip71rZcYAM4e4bEdl8PBo/2IU9Z9NQ55Pm5c5Bufp1wDKfZyzL5kZrs8dYP24SNt6TQCw1QL22NhBHatYNygnGoX2p6Og8FIwSXMxLnP7lW+ytuwD7Z7SC4mdIAUCMuq3sUEdcAzWr5vGOCateFJRbw1CJeQ5IEq/B0ycQYUF3kKojhqQQqGqSizve+3E9xwRRbvtwr3o7tKySqFGjmNdYnnFQR555F95798Pr4n2kpUUhyaAZTKKPsWuvnSlEFdbIciAtKXhwgCa1MiW96s1o6CJPepBb/IIshvbPnkcnn0qpIHIz9bdwoiWhUtWduRfkN+sz+s47mWTSWNo12JysZ1yiQua+L8hz0hjamcIRl3qSFqy4QEQyitk/m+adfErSgkja3N+CnJaEUoHfZGoyeA+lc+l0eHg96r/tKXGqZybiEmlTLysaf7qAiDhK3NSLrMafpgKeYxL3gry+bUBOi++SlIjohSctXxNEBQV+NLnJYNqTzlH64eFUr/82Snx+nzymOZJJq3G0YcMimvGHv+q5mf2TqrVJbZe4QzR1ogtF5HGUvGMg1e66hiIlyeQ+6Quafz2buMJI2jXEjrqvDKHk8OM0pUVVchr3F20/eoh+616Xuq+LIhllk+tgMxrhnkfEZdB9j2nkaNKKxm3YQItm/EFnwo/TpC/m0/Vsjgojd9EQu+60Mkw9PmpUagzVxl8WR4emTiSXiDziknfQwNpdaU3kK/Kb3IQG70knLv0wDa/Xn7Y95Yh74UezPvuOvJNlJI3dRYPNrWnGpUIiRvyfqg82F0cbetanSWcKiEhKIfNbk+Pcm5TCFyeOFdewt9t3lZhylOw+ib6Yf52yuUKK3DWE7LqvpLAComzPSTRmZwpxXCqdXLCCLhSqHSXtDu0ba0sW409TXkY4HZ/Sgqo6jaO/th+lQ791p7rd11GUjCjbfzq1G3WE0rkCCp7nSKYdZ9D+6w81csA3ZB/NnneSnkoLKHJzf7JwWkKhLzxp0pidlMJxlHpyAa24UEjEF6NsxraqLaZUnx9p+BxfSpRKKdl9DDVsPIMuFRJxcRuoZ/1JpBimEJrf2pHmBhWRLGa/ZpvUU4m5DV/ecpQSup1GNa5DXScvptWb/6BvWlanemO9KJ0rYOYfa/49fFYWe3bdCKYMvhxTnovMfUNVWkxElHdoCFVv+x3tOOpD3kv6kFWvTRQnI3a9Y86tIi3Ow2jL4osUfnwKtajqROP+2k5HD/1G3et2p3VRMrV9KzsORER5dGhIdWr73Q466uNNS/pYUa9NceXMwWy168DfvGOZmqI8PkTZroPJbIQ75RHx1g0ucRP1shpPjBJcRtEN+tnWgBwWhCquBQyYY8JXL3jaooy285yy/Wl6u1F0JJ2jguB55GjakWbsv04P73nQNEcTajVuA21YNIP+8A1h1CjGNZZ3HNTal+pDPw6fQ76JUpImu9OYho0V9ZlZe4OoSKsayY/6Wx5eDO3HY19IBC4s74LUPWPQodNM+KbJeU3HynDRrlh93hqjBllCV9wAPbvaKN6pMPeVwFAnEKvHzcX+aCf87NwR4B4zbMiSik3H5cFzTIhq4fOZ30Dqvg8BhRwSfKNh9VVbGDJsyNmmLfFZZ2voN+6HqXOWY9vCT9VOweqfamxUkTENz40e78X6gAbo3646RAZ2GO/cB0nbduK2zUB0amSIJoNmYfro0Rg/wBqp8U9V7/+KaqLlZ51hrd8Y/abOwfJt89Dw5EYENOiPdtVFMLAbD+c+Sdi2/SL/R6KVHkPVPsoi9mNLdAsMbmYMkeUUHAo+jMlNjfDJlK1Y2PMFLvg9QC4y8TxTWjkbtcZg60GsW7Y21xPrKj4ydWDHqfAhK67bcVEtEG/SdxVkD7F3fQAa9G+H6iID2I13Rp+kbdh+sVDDDN5R7a2LyLzM8i2q6YCBnRrBsMkgzJo+GqPHD4B1ajyeymSIvhGIl2ZWqCYyhGN7RxjpNkTXTs3VcmA+Gp8/gLC8TFw+7okQw76Y3M8CEokhdAJXY9zc/Yh2+hnOHQ0g44uRVHNbFbjHcF0TAsdJA1FfLEadNg6oX/I5t54YZcOkB7EuAHB4fNxVs00q4dRmG2VEqPtJf7SxqgqHUQsw13khXDd/C31/L1wr1Gfkn4Q5/1QM68y6IePNMZW5yNyX9SCfDnQb9MC40Z9jyKjeaPAsFgkc2+wuYc0t6+iKz8Nqi6URHAZ2QiPDJhg0azpGjx6PAdapiH+q/qBGZcehGB1dNOgxDqM/H4JRvRvgWWwCivjyq1BX7TrQmXcsr1dTGh91tKobfCiccOX9DgdrTKQ89UKbtmg3zwFZ9A0EvjSDVTURDB3bw9FIFw27dkJzx8/Q2VofjftNxZzl2zC/8XlGjdK8xvLOc5VayOGx6xqEOE7CwPpiiOu0gUPZpGbU3teokWowx1QDLh6BgQng9K3Qw3kvAm57YmTRAaw/lshrOlZGFhuFOFmZoVhU/C/2vhYY7PI3NnV7iq1DW6HPwqsAl8WwIXfQznTMB88xAUC/7VRMsPTBTu8A+KbbYIi1LtuGjGLzso6IGUh2/1RjowrHNDxnJz9DWn4BSoZVXK8+6hbk4BVXYnFWoKerC5IzZp+ODnR0dCBSVFikPEtDfkHp0VCvfl0U5Lwq9yGuyo2hah+5jBfIfJ6OdEWnYNbIFMiVoSDxPLbvCEHtAYOgGL5K2qjLTlEB7DhxKXxxLdsWb9h3FbgUPEvLR1no66F+3QLkvOLKMYOXoWz51lHtEHRJDjnEaPnFcNQN9cD5xBQEB6XBaeQgNNLVzIGszExwdTth9NixGPvdr/hjxRR0sBgMl783odvTrRjaqg8WXk3jj5GR5rYqyBIQmySvxMN+PG1SCac22/BQ3Az9Zs1gDQ4yyBn5x55/KoZ13rrBzjEVePctB7EudOUycMQ2uzPnVnZGxefha4tSjgF60NUlqHfjjcahGLGuLuQyDjK+/OKqaF4HStAYS9W5ocKb1A39FujoVB1J9+4pZLIqcOA49pjw1Qtt21LxPAfELb/A8Lqh8DifiJTgIKQ5jcQgxURX7K+Y6Dw1SvMayzvPVWqhDAmxSZCLSntUIezza58orOuqJpSBC3sO4na+4n91Lbqie8vaqG1mwms6VkbczAE2L87D/UoG5AAkUikkkiKefZPge/IRui5yQ2jQUpidcgP0mzFsyFe0Nh0zYR4zQPGarjW+ndoBNxYuRVb7T1ELPDbkgkLIeJIM5Vig+dFjGp4zW/dBF7oO/xuvAACy1DRwPQehuxHf6l4EHR0OUqkcudkvwZXangHAAG36dAFd94ficDKkpnHoOag7jFSOoUrlxlC1j3otOsAx5TCWbg1BpiQb9w7ugl9CILYtuwSLEd/AyTgXLwsJJJHC2r4SNuqCQrVPi4xgbFiAzIx8gEtDVFwWCiWKd46sOBm04Y+rMm/SdxUM2qBPF8J1/xtQhD4VaVxPDOpuxGMGV0cp11gdAiA2t0P/YT1g9PAeRBPccGpWi9JnAcpyQB/N2rVA7LY5WPdPKookz3Bxy14EJPni5KOuWOQWiqClZjjlFsAfowLNbVUQ26B5o8fw2n0FaXI5chKSSt8tioyMYViQCcUwRSEuqxASCU+bVMKpzTYMqBCF+YrOS+PikdO5LzqLghn5J0OTtprzT8WwXk7dYA+J0lzMt4QTz77KsH87k212lzVpqzm3Mmx521gKbz9Y51bndcaBmO8fefPLKFPzOgCesTSEytwQ6eiAk0ohz83G85ta1A15BsKvhkHzy4KmGDJvLtrcWo9FvsrfwslHpO9RXE4qYI6J1NqeWS+0qmGAVvMcYnPY9R+GHkYPcU80AW6nZqGF5kTnqVGa11j+cSg9FAAxbJo3wmOv3biSJoc8JwFJZZOaWXvZ5y83UVRRv+fDRHqb1o4aQMPH/kC/zp9Hc6aMoFFzT1CclIhIRom+86i/bU2qVtuWBvx+lp6pPxtABRThOpHaN7Wn3mN/od++diLbwYvJJypHc19pGu0Z4URfLXChvVsX0px1/xARkSzRl+b1t6Wa1WqT7YDf6ewzKaX7zKRW9expwNTFtGZ6Z2rY/Rc6HaN8f4ujzPA9NLKRMTnN9qXHieG0Z2QjMnaaTb5RuYxjKjU87zL9NOIPuld8OC7dh2a2qkf2A6bS4jXTqXPD7vTz0bN0ZLI9Gdh8S3tD0zSff2HGRrVNUSXP8pQgjSXv2T2poWl1snQaTdvCchX30s8upMG9hpLzslW06NeVdCaRo+yHx2iinSE5TveiiMfB5DK8AZl2W0CXE/Lo9qoeZN16OC0/c5/uHZ9M9gY29O3eUErjiIhLobMLB1Ovoc60bNUi+nXlGUrkiLhM1fioUokx1AiElGK9Z1PPhqZU3dKJRm8Lo1wunXxmtqJ69gNo6uI1NL1zQ+r+y2mKyY0g14ntqal9bxr7y2/0tZMtDV7sQ4/jNeP/y+kYtXvDMoo7/C3Z1W9Fn05eSS6zupL98BV06sIhnjgVMOOqyev3XT2mXMpZWji4Fw11XkarFv1KK88kEkccpe0ZQU5fLSCXvVtp4Zx19E+W2nEy7tKeUdZk4jSb/O/eomMT7cjQcTp5RTymYJfh1MC0Gy24HEfpx0ZSPfOm1MqpHXXs2osGT1hJ55IyKEI9B2SJ5DuvP9nWrEa1bQfQ72efkTRtD41w+ooWuOylrQvn0Lp/snhzj2Nuq0puqAt93cKcLB2H0tz1P1AHG8UzKCSLo8Pf2lH9Vp/S5JUuNKurPQ1fcYHi8jXbpDEarHaXl7eyaFrTtRZ9MnYpbdyygX53XkTeMVIivvwr0Jx/KrGPyWPWDa3mon8iFTH2VYbLfkDHJzcjQ4fvyTP8EQVtVozt71fieepdgebcYtZLjUgytsmkh8cmkp2hI033iqDHwS40vIEpdVtwmRKKNHauxDhwlP3gOE1uZkgO33tS+KMg2jy8AZl2+52uJBYx84s4xnWAZyzVx0d6exX1sG5Nw5f7U3wKo26cvE2394ykRsZONNs3irjEPTSkUV/a9FjzWRsijjJDd9MPn3Wj3sMm0qy5i+mPv1zI+14OEXE8Y5LLrBengjw126JWw7Sb5wnEpR+jkfXMqWkrJ2rXsSv1GjyBVp5LooyI4zTZ3oBsvt1LoYqJrlmjmNdY9jzXIDeUXL5uQeaWjjR07nr6oYON4hkUntp7IS5f8/yMw/Ih/NS9gMD/DTI8PrIOAbaj0btaDl6+ykVmtCdOpHyPrXNs1Td+r3DRq9Hzs0Qsu78NvVlfDXhXcDFY22sg4pZEYHuf93ligbeOMJalyB4fwboAW4zuXQ05L18hNzManidS8P3mObDV/jvNbwYXjdU9P0PisvvY9o4mtXa3eAQEBD5+iq7BZaU3bkclgzO1gFUdExRkmqNz30bqW75/ZBw4OWn/EPtbg4NcLocgWP9/QBhLBUW45rIS3rejkMyZwsKqDkwKMmHeua/iebP3hgwcJwe9w0mt5e+gCAgIfPSIG6FjBxM89DmOox5nEPBEBvuRM/Bl87JfcPggyFMRduoyHrySQb9Oc3RqXEN9i3eEBElBp3EtMhdFopqwcbRB7XfzRk/gnSOMZRliNOrYASYPfXD8qAfOBDyBzH4kZnzZXOm3Wt41cqSGncLlB68g06+D5q0aowbrx3LeEOEWj4CAgICAgMBHh3CLR0BAQEBAQOCj4z0sUFQNl/LMAOxc6YaHb/0+YjkmzbfAu2v3e+C9WoHftY2zsnbQN6EyOcUh64Evtm7wxhONryu+I95gXPPiLmP3Ri+8xq4CAgIC74V3vkDRNFwqfkRG2x960RbN87xt3qTdFdg13ykfwApcoY3z9ePxWnbQ16RSOcWlI/b6cWzceQ3PKtz4bfAG4ypPQYTPNqzceoXx2w9lyLMyoKWEV0BAQOCt884XKOqGS1HNLpg2bwSaqzuS3hD187xt3qTdFdo13ynv2wpcsY3zTeJReTvo61OpnNK1QOueLVGnvHXZW+UNxlVkgbYD26HcXeXp8F26FlpKeAUEBATeOtp9i0eSilB1Q6K5RMOEybYLq9pcZUk34X4kBLpt7GESvBtLd/sjJPgmAq6eh4/vLchadELdpz4VGB8rY9JU2CHd74hQJfo4thwLQb6lA2wVOlNGe8G0g0qU2m0uYlmK9ZDGME82QxDWqtk1DeLV265+VdO0wOrVyIT/9s04kWSFbvYSBLpuxpbzObDrZAdTkaaV1ETnda3AgCQ1VAvzrQ4gScQ1Tx8EhgXhTqoOxJJCoKoRMkPKzK9Qs2Y6Vn2oEg/zetm4fFD5XA3xwo89Jiw7KK8dWAXN+GhnbVUzEfPYb0u3fhGAA2656NSrCD47PHGPawDHxoptWDHXsLU2rsXIK03zJ9+4as4JjT2RFuSGAx7nERIbjVshuug3YxCsC9T61ViGwLXjMGnjPUjEUhjUawubqmlM0ymzDwICAgJvA/VfbtOEo4z7aoZE/xRNEyavXVjJcMml0Z19Y8nWYjydLuAozXMveaZzClvs9/Zk860HJedVbHysjEmTSwml7aMaU52uk2nx6s30xzctqXq9seSVzrHby7KDPnym1G5iWooXX7zNa55Utmuy267UYF4LLEdxG3pS/UlnSCGBnU+tHedSUBHDSrok9PWtwAz7MdN8K80m/+ntaNSRdOIKgmmeoyl1nLGfrt+/pWQWVTeSXiBSto0yznXq2CTNMeGzg5ZjBy6DER+tra3KOcW23yoje7SSOll2pSnL1tPm5aPJsUZDGueVThwz5ozYMPJK3fzJN67a5NULv1n02XfelCyTUuyuwWRuPYMuFfL0K9uVBpuNIPc8Ksd0yuiDgICAwFtCi0+vRajZUtWQuLB/pqYJUxu7sMgcjgPbo4FIcVzzrybjKzMg0e0HON/og+0uX8PSsCLjY+VMmqK6n6B/GytUdRiFBXOdsdB1M77V94fXtUJme5l2UFsLpXazDY2WRk15zZNlaNH2ciywemLdsnfTemLFbQ6WldSi4PWtwBr2Yx7zbW40bgS+hJlVNYgMHdHe0Qi6DbuiU8vWSmZRdSNpR6UTsc61EJ/3nKoxJrx20HLswKWw4qO1tVUZlv1W8wENnSqfYMxvP8F50X7sm14dfp5XUciMuWZsWHmlav7keMZVm7yKhuvq87AeNQiWumI06NkVipSouF/8plPNPggICAi8LbRYoEDDkMhnwmSZHTXQUbV+yh5tx3cL4jFmzyr0rQEtjI+va9IsVWCimTXAydgmSqYdVKEzLW03n6GRzzxZhhZtr6wFljkWTm9mBdbGfFujJb4YXhehHueRmBKMoDQnjBzUCApxbomNsxwjaQkq52KPCa8dtBw7cCnM+GhrbVWGZb9V30YZfTS2rgddEE/MNWPDl1dl8NmeecZIZddYRMXJyuZeaUpU3C9+06lmHwQEBATeFlouUFQNiWwTpvZ24dJD5Yfgz8nrIJ/jit87mIBLuoNQv60VGB9fz6RZWJivuBBL4xCf0xl9O4uY7WXaQRU609J28xoaeS5YZXbNfFg6VdB2XgusCEbGhijIzEA+OKRFxSGrUAIJcyyC0MzhDazAKsPNF28xzO36Y1gPIzy8J8IEt1OYVabTLA4F20iqbBt9ySmfi21s5bODlmcHLoUZH22trUpIWPbbAjDSu5h83A1/ib5De0DEjPkznFKLDW9elSLmGVe+MVLetRkcbF7gvPsVhTpeIoVUIkERX7/kOtDhpJDKc1HQtBeP6ZQ1vnJkhF9FWHlfDxIQEBDQAi0ekpUj+8EJ7NnlidC8BujUtTUsTUzQvGMzZPisxtx5f+Lg7doY+9sEOOg/weG/NsE38iWqiNNwLTQHdm3r4r7bLpyMNIRTT3sUXnTFjlORMGjXCUau4zAztAVGdBUj6lYg/Pb5IevT/qjmsxqbfCPxsooYaddCkdO8D/ra1ShdTRk374hmGT5YPXce/jx4G7XH/oZxFgnw3rlDcZ7eXWFbU794a0LWzQPYcfEZpAXJuHPuOrivl2J2x1owkTzWaK/9F84Y2y4V3st/wfwNZ/C804/4daAxIj12Fre7LwY6dkbHZhnwWT0X8/48iNu1x+K3YTq4sHc7PO/rwLG7DfIuHMZevzhU7dwH/Rpl42+XPThfZIfPvvsWHbJU2z7BvmrZu3lRTTi0NEHAhtlYuDsQOXWrIeUW0GfGINiZyRGx6Xes9X8EzqIaUm8nQ8++J6aN7qg2FhPRtks71Lm/EwtWuCMs4QWSY6OQbdwEHXo0wnO3v/jjK8/GgxN7sMszFHkNOqFra0uY2WvGe0KzIpxbMRVLjgbgVtBVnDvlg+vPaqFt83yc3bUDpyIN0K73J0jZ8QM23S1CXtpz6DiNxIDODaFLCYp4FFjB8sUlHPUqOZcVaksZY/LlTxjT7AF2LlgB97AEvEiORVS2MZq074khn7fC88OrsCs4AfEhETAZswQ/OJkqfTpizMjVYZBe2Ivtnveh49gdNnkXcHivH+KqdkafbtaoXnxLTZ4VAa+SnOrTF42eu+OvTb6IfFkF4rRrCM1pjj597VCjODFFYjFeRfjA83IUkh4G4EnDmVg21g4mxhI8PqwWc7uOMPCeCxfl2PQZqJlXE+xRtSw5YNqqLXNce0wYh8455eWVKVq1rYP7OxdghXsYEl4kIzYqG8ZNe6IzndHsV39b5FxwwZ7zRbD7bCrGd3qBw6t2ITghHiERJhiz5Ac4VXuF6yu/Ux3fjro49v1QbM4fhHEdhQdmBQQEXp//wE/dc4hZ2wsD45YgYnsfaHzB4yPng1lgK0L2GEfWBcB2dG9Uy3mJV7mZiPY8gZTvN2POe9NpCggICAj8v6L9LZ5/MZxcDvm/VYH5wSyw5VN0zQUrvW8jKpmDqYUV6pgUINO8M/q+X52mgICAgMD/Kf/3CxRJUjCuZdZHK51wXH6cq/7yx408FbeuZ6F+Kx3cD4hVf/WDYtBrOQ79WAc3ts3DDz/Mg8sVHfR3Hg2HkjtrAgICAgICb8B/4BaPgICAgICAwL+N//tPUAQEBAQEBAT+fWi1QMlPuocbAQEICAjAjRs3ERR2H9Fpee/nuYjKGFvlmQjYuRJu/0rl8PvnjY22r2JwcdcaHAuvzAHyERPgg4sRaj/iB6iZit+FFbkyJuR3cf63jCwFYTcj8THcuPxX275fAy45BGf8byH1Y/s2NZeMkDP+uMVs2L8gp98yb1zjPmoqY1uvJB/JtVSrBYqhmSX0LvyMfl+vwLmop0h8dA0Hf+6Hlu1GY8MNxW9TvBsqb2zV0RFB2984+0+jpdGWHznSY67j6IZNOB9fiSTOu4hVPx9Hikl1jeTTMBVXaEWuHBrHr4i3fP63SuEDHFzhjnw7W1T4G4XvhTexfX84Xs/YLEHYtrnY9lgPpm/6TLg8CxmVbwAvkrBtmLvtMfRKG6ZmDv+Ycvot912DN65xHzeVsq2/Bm9yLX29ecVA/bfv+cjzHEW1mv1CN4pK/0J3Vveimuaf055YdYfJW0QWSau62Cg8MgJvFVnkKupiM4NeO7RcAm3qZUXjT6vIb8pFGu5Fx0Nz1f9cjIwiV3UhmxmX6HWbVD7v+vjviwIKWjyEfvDNVn9BoDJwaXTK+TfyylN/oQK4RPI7fpHS1BxhlYejtFPO9FulG8AHR4l+x+miUsO4tFPk/JsXva0zvD3edt/ZvHGN+6jhKIHhn/vgvO68YqDFD7UpkD48gY1XquGb6f2L3TB6qPuJFRJ2/wEv+SBM7W0JUQUmVi4tGCc8fHHucgRkjRzQsKqIaXlVbMsythaw7cMlFCbhpvsRhOi2gb1pOkK9DuCGrD7yLmzBrnPpqNPGHmZ6YFt4DYrw8LQWxmbKQNhJd5y7EYbb4Vmo0rIxaokqMurKkRF2Eu7nbiDsdjiyqrRE41qiCu2zksRr8PQJRFjQHaTqiCHJT0Ok335sO5EEq272kAS6YvOW88ix6wQ70zxGbCRIDfXG/us5MIlyw7571dGtZS3tjLZqpl6WEdgEOQg+tA+pHZ0x1E55aw5pwSfg4XsOlyNkaOTQEFVFilsSwVfC8OjudRUjLttUbIGUm2VWZBEkSLzmCZ/AMATdSYWOWIJCVEUNEzFkKYFwO+wJ/0u3kVWrOezUdcbM41tDzOpT6RAoLNiK85sinWGqtjdTuI81xqkQMCh6iNNqRmhzieb8IJYNWJbCNAeXIE8/htm/pmH4XyNhV6xflmfehffe/fC6eB9paVFI0quBTP/t2MzMFVH51mQ5K8fLixVQqGT7Nk3nN0Vr1gAZI0eraJxLL/0WTrpeQ35jwo0d23HyiTFatNRHhNt27PZNQA1HB9Q1BDNPmebqZkCQmrG5boqvRi3SNHs3xAt/b4QkxiL0HqMGaRivq+N5yBFs23wCSVbdYC8JhOvmLTifY4Om6XswftJG3JOIITWoh7Y2VZGmUUckSLt1Eq7X8tGYbmDH9pN4YtwCLfUj4LZ9N3wTasDRoS4MAeQ+9IF3SCJiQ+8hz9IBjWWBaib1+ngVpDynWPOUYXiXp+HWSVdcy28MurED208+gXGLltCPcMP23b5IqOEIB0XwNWuaXhqjDjcDgtZinErfa6BQfV+VeqhlW8XF21aqxsmRHrwfazccxpU4Y9i1aQhRzBls33IWuU3aoUn1Qo2cQtBuLN3tj5Dgmwi4eh4+vrcga9EJNtXK2lzZOakRO7XrgebrULWtl2xYmISb7u64I6qC6ONbcCwkH5YOtqilx7aqM2MrUbqWmrPrhTRVu3llU0MzfhqidT7UVyx85Hl+o/YJChHRC9o90ICMhhyi3ApMrLK4QzR1ogtF5HGUvGMg1e66hiJfsSyv/MZWpn249Awcpd3ZR2NtLWj86TzKCD9OU1pUJadxf9H2o4fot+51qfu6KJIRy8K7j85ecdPK2JztOYnG7EwhjkulkwtW0IVCLYy62Z40acxOSuE4Sj25gFZc0MI+m+1P09uNoiPpHBUEzyNH0440Y/8NSo7ZQD3rT6IzCqUxzW/tSHODipixkWbcJ49pjmTSahxt2LCIZvxxpnJG21IYRuAloURcIuMTFBnFHZpKE10iKI9Lph0Da1PXNZH8RlweU3F+2h0lKzJRtv90ajfqCKVzBRQ8z5FMO86g/TdSiEt2p0lfzKfr2RwVRu6iIXbdaaVy8HmOX8jXp5LdlM6flxHOa6pmjtO+s3TFTdXS7J8SxZgfLzRtwHxxKusRZR/7imp3W0sxxR9ccqk+9OPwOeSbKCVpsjuNadiYZlwqJC6OnSsVWZM1c7z8WJGypTwvg9cUzaoBD9PVc9RX81yLL1GE9wxqbdyepu85QqdOb6BhDRvS5wu2kOsJb1r9eQNqtSCUpKwxLc9crWxsZhmnpVratksDwTOPuDja0LM+TVIMBIXMb02Oc4OoiLLJdbAZjVAoo5l1JORZBHnPaE3G7afTniOn6PSGYdSw4ee0YIsrnfBeTZ83aEULQqXs9nOqJnXlnC7gmaeadSSRXkR404zWxtR++h46cuo0bRjWkBp+voC2uJ4g79WfU4NWCyhUyjK1L6aLt/nrcFnfWfsq10Nt2/qUuMpau0vgXpDXtw3IafFdkhIRvfCk5WuCqICVU0uCKc1zL3mmc4r68r092XzrQcnKh6vknCy//3zxUbatl56ZUkK306jGdajr5MW0evMf9E3L6lRvrBel57FyhBXbh0rX0gJ2vQhO025eMeOnVDsqQP0xgMohl0IqAwwMDUHlmlhliNi/BdEtBqOZsQiWUw4h+PBkNDViWV75jK1g2ofLbnOJYO44EO0biACIUNNhIDo1MkSTQbMwffRojB9gjdT4p5DJWBbe7ujXc7BWxmZdQx0Erh6Hufuj4fSzMzrqamHU1TWETuBqjJu7H9FOP8O5o7hC+6ws+gYCX5rBqpoIho7t4Wiki4ZdO6CugRi6patPPYiLbzWzYoOaLfFZZ2voN+6HqXOWY9t8m9cz2rKMwBaSsteVkUVg/5ZotBjcDMYiS0w5FIzDk5vyGnH/fsA2FYvMHZWsyDJE3wjESzMrVBMZwrG9I4x0G6Jrh9p4uHc9Ahr0R7vqIhjYjYdznyRs234RJdHn+EzIFfRJ+fyimg68pmrmOHXvh56DVS3N/TPdGfNDomED5otTWTrJkPgkDoWmtWGm0FnjsesahDhOwsD6YojrtIFDmf6amSsVWZM1clxcfqxULOWimjym6EJmDbA1U8/RxprnsjREi4GdYW1ggU6jx2DIF1MxtHUe9FtOwsRhX2LiYHukxSdCxhpTbc3VLOM0tLNtl80UvnmkB3HZQECvZCCU4TFz77zVBAM7W8PAohNGjxmCL6YORes8fbScNBHDvpyIwfZpiE+Usduv9gyAypzimaeadSQb1VsMRGdrA1h0Go0xQ77A1KGtkaffEpMmDsOXEwfDPi0eiTKWUdsSRk156rBKy1j7KtVDrduaCfnrWrtFtfD5zG8gdd+HgEIOCb7RsPqqLQxZOWUhg/lXk/GVGZDo9gOcb/TBdpevYVl6Na3snKyg/xW+rowIdT/pjzZWVeEwagHmOi+E6+Zvoe/vhWtyRo5IWLG1VbqW8tQLmZbzihk/nmsHgzdboOTcRNADA7Tr3gF65ZpYOWS8yMTz9HTFw4liMzQyBXJlLMsrn7GVbbpVRWHGLft32St6uroguRwQ81l4tTM2Vxnsgr83dcPTrUPRqs9CXH2WXLFRt8pguPy9Cd2ebsXQVn2w8OqzCu2z4pZfYHjdUHicT0RKcBDSnEZiUDm/0soXGx0dHcXDTngDoy1PLJhwGXiR+RzpCh00xGaNYIpcXiNuTgyPqVjFiixGyy+Go26oB84npiA4KA1OIwehkS6HlGdpyC8LPurVr4uCnFelD8Hym5Ar7lPZ+RX/LkXJVM07TmqWZrap2ELDBswXJ+V0ksvlSq5DGRJikyCvxAOq7LaUJZ9mjmdUGCsVSznTFM1TA+RqOco7LspzWwRdpaf3xCIRiOSQ8+3LbE/pHxQwjdMl/Srftq10kPLnUXmUZ+ZWjq1IV+nBRTFEIlLUNb72q1Ga0zzzlK9/ynNBpKuUa2IRRKQYX3ZN46nDKvDtW/JyJdr6ujUOgH7bqZhg6YOd3gHwTbfBEGvdcvIRkD3aju8WxGPMnlXoW0P5SJWdkxX0v8LXeSg+uX6zZrAGBxkrR3hiqzzfeOuFNvOqnPhpg/YLFJKrJrw8HX8vWY7zDWZj6bgGMCzXxKqHFh0ckXJ4KbaGZEKSfQ8Hd/khIZBleZWhKdPYyjbdatiSlbKONUGBciy8FRqbA5DpexKPui6CW2gQlpqdgltoy4qNupm+OPmoKxa5hSJoqRlOuYVoYZ81h13/Yehh9BD3RBPgdmoWWogBkZExDAsykZEPcGlRiMsqhERSXmyUClVljbYloeWJBRO9FujgmILDS7ciJFOC7HsHscsvBQZt+jCNuD0dHdimYkCl7WJzO/Qf1gNGD+9BNMENp2a1gBgGaNOnC+i6PxSHlSE1jUPPQd1REn1xM57ja9Unpdixk4l3nKCRTqz5kaRhA+aLU1k6idGgSUPo52QqxhBi2DRvhMdeu3ElTQ55TgKSit8ZsnOFry1lyaeR4yGNtYiVcn9ZwWLXAIUoXCnO5Y2L+hVFHd59efYTlRmb0y9tYdQiheW7Itt2aQ3im0dyIxgbFiBTMRCIistCoUSiWC7rcJBK5cgtaIpe5dSRirrOZymXq5nDS2PNnKcJ5fSPveApg9+ozd5Pqe/ZBbDh2ReoZFtlTV+vxgGArjW+ndoBNxYuRVb7T1EL5eRUfgj+nLwO8jmu+L2DCbikO7hbbL2v/Jzkj52Cil5nQIUozFdEXhoXj5zOfdH2HiNHZE3QViO2KcXHUOzPXy/YI6s8r7ILbNjx0xb1ez4sXsVco13jbEmvRjsa9/uf9NfKxTRn3Jc08qd9FJJRcuNNRom+86i/bU2qVtuWBvx+lp4pP8YgjSXv2T2poWl1snQaTdvCcolL96GZreqR/YCptHjNdOrcsDv9cjqGpAUR5DqxPTW1701jf/mNvnaypcGLT1GQ50xqVc+eBkxdTGumd6aG3X+h0zElN+o4yri7h0ZZm5DTbH+6e+sYTbQzJMfpXhTxOJhchjcg024L6HLcUzo2sh6ZN21FTu06Utdeg2nCSn96GH6cJtsbkM23eym0+Cl4WaIvzetvSzWr1SbbAb/T2WdSStszgpy+WkAue7fSwjnr6J8sIi7lLC0c3IuGOi+jVYt+pZVnEpXuSxNxaXtohNNXtMBlL21dOIfW/ZNFJEsk33n9ybZmNaptO4B+P/tMdZ/0YzSynjk1beVE7Tp2pV6DJ9DKc8nEyeLo8Ld2VL/VpzR5pQvN6mpPw1f8TWHemrE5eecuHZ9sTwY239Le0DTiiKggwpUmtm9K9r3H0i+/fU1OtoNp8akg8pnZiurZD6Cpi9fQ9M4Nqfsvp6k0tDyxyAzfQyMbGZPTbF+KUvpijjTWm2b3bEim1S3JafQ2Csslxb3RswtpcK+h5LxsFS36dSWdSeSIqIAiXCdS+6b21HvsL/Tb105kO3gxnQoNpD2jrMnEaTb5x+RS+rGRVM+8KbVyakcdu/aiwRNW0rlkjohLobMLB1Ovoc60bNUi+nXlGUpU+XYF+/g+UXmMPik90ZRxt+z8d2/RsYl2ZOg4nbwiHlOwy3BqYNqNFlxOYI+T/0MKPz6Z7A1s6Nu9ocXf9mDMD2ka7RnhRF8tcKG9WxfSnHX/lBOnMrinu2hQ82l0ruSbCbmh5PJ1CzK3dKShc9fTDx2Kv/XGzJULFFfEaEvpKThmjpcXK+Iy6O6eUWRt4kSz/e/Sw2MTyc7QkaZ7RdDjYBca3sCUui24TAl5jBqQFaGRo5rnekmRXt9RC8PmNPnYPYoJd6OpLY3IYZoHhUffpv3jbMmo9UzyiXrF2DeznPbcplU9rKn18OV05s5JzVp08g7dVRlHjtJ9NOdZaQ3i0nnmkYziDn9LdvVb0aeTV5LLrK5kP3wFXYjLo9urepB16+G03D+RJKw6khtJXt+1IMPmk+nYvRgKd5tKLY0caJpHOEXf3k/jbI2o9UwfehzHrqUFt1dRD+vWNHy5P8WnK+V0TB5jnrL753bBnb5rYUjNJx+jezHh5Da1JRk5TCOP8Gi6vX8c2Rq1ppk+UfSKUdMyH/LU4QTVvssY+6pePrRr6+kY6WvXOCIiyrtMP434g+6VW/te0tWfW1AV66G0eOt22r59My3+Zgpti1dqcWXnZH75/WddL6SZ4bRnZCMydppNvsoFWBZNa7rWok/GLqWNWzbQ786LyDtGynu9LWDEVvlaGpPHqhfZWs0r/0QZI36q9aw8/ns/df8vsfDKHh/BugBbjO5dDTkvXyE3MxqeJ1Lw/eY5+Iia+Z6Q4fGRdQiwHY3e1XLw8lUuMqM9cSLle2ydY6u+8Xvlw4zTK1z5eTT8v3DD2h7Gqi9x0Vjd8zMkLruPbR+V/lpA4D/K+56TXAzW9hqIuCUR2N7nPZzvHaL9LZ7/E/4dFt4iXHNZCe/bUUjmTGFhVQcmBZkw79wXH1Uz3xdF1+Cy0hu3o5LBmVrAqo4JCjLN0blvI/Ut3zMfapyqoNeyhbC+eAhhijtBSsjAcXKQ+r1gAQGBD8T7npMc5HI5uHfx623vGa1/B+X/BXGjjuhg8hA+x4/C40wAnsjsMXLGl2iu+Br/R4IYjTp2gMlDHxw/6oEzAU8gsx+JGV82x0fVzPeFuBE6djDBQ5/jOOpxBgFPZLAfOQNffvBB+4DjpG+Fdh1rIv5uBmo0qAmFRFqO1LBTuPzgFWT6ddC8VWPUKP6dFAEBgQ/B+56TEiQFnca1yFwUiWrCxtEGtf/FH6L8927xCAgICAgICHz0/Odu8QgICAgICAh8/LyHBYqqcfFjsp5+TG1BUSyCgxJQ8gXb1+VVzEXsWnMMlRIMlyB/jvALvrgZp/Qjcx+aytisi8lP+Af7Vx1AqBa/B8RlPYDv1g3wfqJuE3tL5lemFbQ8o/N/nXdoaH1bvJbFu3J8VLWpAlRqDjPf3yIVxP7fFLfyeYN5IM9GhN9erPp9IbZeSlR/lU1+Av7ZvwoHtCmaFVIZa3z5vPMFiqZx8WOynn5EbTFoBFvuFJZtC0Gu+mvaIk9HzPWj2LDpPCojGC6BSziKBUtvQGL6zp+g0JLK26whz0T8LQ9sXu2LqApjwCE99jqOb9yJa88YG6uZX1/X0KlhBS3H6PxfR7NefGy8psW70rxJbVIzGL9LGDVHI9/fGtrE/k3i9vHw+vOAQ/TOGdiWPxwzh5jgzJKt6hswkCMz/hY8Nq+Gb8VFs0IqbY0vh3deH0XmDujd2qr0RKKaXTBt3gg0VzXRfRA+prYAItToMg2fJa3Aoosv1V/UDpE5HHq3htVrjuqrxDqYfORP9FT5VcQPiQgWbQeiXb1KfCVGVBP2A9pr+S0aXVi07omWdVjlTISaXaZh3ojmip/Gl6fDd+laXK7sh0uimugybR5GKCWZLFaKvtv2YKy1Vo38T6FeLz4+RDB36I3WrzvJtORNapM83RdL114u1T28U9RrDiPf3x4Vx/5N4vYx8drzQJ4MP+9wGFmYoGr7+TgXsEZ9CwYi1LQfgPbaFc0KEVm0xcB29fA2jqbdt3gkqQj11sL0q8OyS5KKcVGmZD01F7HspmxzouolRI4UpiHUDp2sC3FLw55ZbDFWQ9nAai5LZVg337f9WIy6+iH4fVUiBozugBoVZScjTsgJxqF9qejoPBQqgmEUj6NGH5tBdkcRy+ddpuNLk+CyWNoZ47mWJlVN06aUYamtydNvTdg2azHjPIzFhSwc7hsj0Xx8YzzYtQdn0+rgk+Zm0AMjP3VfIOCAG3I79UKRzw543uPQwLExaoiVbMbNdHBDC/OtVlZQptFZgtRybMmlyFPxz46/sOl4AFJMm6FVPT3E+7lg/akXsO5gx8gXRntYBlhtbbUapl5143UJWhqFiw3HqqjWCzFrzJgnlSPzrjf27vfCxftpSItKgl6NTPhv34wTSVboZi9BoOtmbDmfA7tOdlAInbXIJUZf+C3eKLVgu98RoUr0cWw5FoJ8SwfY1tID+PrCpSH4hAd8z11GhKwRHBpWhUStTmq0lWkJtket7OtqBmMbGMRX1E+W9VzTKM2u7wAp1xyZUr6bBGP30t3wDwnGzYCrOO/ji1uyFuhS9+lr51H5sdfeqq11Ta+SqFFjX8dADlR2/r7GPOCScGm3Cw76hCBZJkMOLNHWxhDx6jHUYV135Qh334jI5uPR+MEu7DmbhjqfNFdc/7Sd93zWeMZ1Sj0DeVH/5TZNOMq476GV6ZfPLllqXFS2nhbwGI6LGOZEFc1vSbNYhtCblMJrMVbfX7kt3MdjP36xmz417U/bK/q1PZZhMlRKXOIm6mWliK8q5fSRGcsgKsjUzqTKMm0Gp6lbas+U32/llvLYrFnnYaUG5R2iIdXb0nc7jpKP9xLqY9WLNsXJ2Pkpe0QrO1lS1ynLaP3m5TTasQY1HOdFqSmqNuUKzbfaWEF5TMXl2pLVkMVsowF1e9Gm4l+tzHD7ieb65ahvVgkDrLa22gpssErn1ZgH5RmFNVA1tGq2V9keXLZPqs+PNHyOLyVKpZTsPoYaNp5Blwo5itvQk+pPOkMKeex8au04lxRCZ21yidEXXou3Ai4llLaPakx1uk6mxas30x/ftKTq9caSVzrH7ossjg5NnUguEXnEJe+ggbW70pqHz1TrpEZby7MEqxqMNffV7CenYT1nGKV56zsp1Rxlo3wBcWmetNczvdgw/D3Z23xLHsl5r59HFcReW6s2aVvTfUMYNfb1DOQlaD9/X2ceEJH0Hi1p25J+uVHEG0PmdVeWR4eGVKe23+2goz7etKSPFfXaFEcyPkO3OnzWeJ7rlLZovOfSRISaLT/TyvTLtEuqHErJespjOLaOZpgTmdpGliG0HIuxyr7qbSlnv/dtPzYxQ22DeDyJ1mixCkzDJDNOJZTTR2YsAVGNFlqYVIuYpk2ZkZqldl7D8vtdCp/NujJGT0BHtwF6jBuNz4eMQu8GzxCbwPHnp04VfDLmN/zkvAj7901HdT9P/FNN2aasBsscq4UVlM9UfNmY35asjm7jCZj3dQpcd4SgSJ6MU6GmGNaXYQ3T2gCrra22AhtsCSx7qbZGYQaa7WU8WMw9huuaEDhOGoj6YjHqtHFAmTxWt+zdmp64+GNnLXOJ1ZcKTKyiup+gfxsrVHUYhQVznbHQdTO+1feH17VCZl8kEfuxJboFBjczhshyCg4FH8ZkW4v/tXfmcVGV6wP/Mowrmlui4pJoihtooqW4ZO5XTfNaZpakmFreq9Xnd2+pedWsLEvNfV/KJUU0FxINUSBRVldQURAQQjYFFNmGmXl/fwzCLOfAqGhq5/tXwZxznvd5n/eZ1+HM+Rr1JqlYK8gSXIzKwnouYZS2pr+bGOVBZf8mEw3KX/41/ST9Vi/nLYeqD15H5eTeOqu2Fqzs6TNb+Er02AcxkJdi9fo1o/zcSyCZwzzJ990XbQEbW5q96s7Y10cwpm8zbsRdR1eeBfrepWSs8ff/PmWKZP+1xDrTr6Rd0pwSM6e03TT7low50WqssWcWY2wJlTvusduPbVHbymqYSpA1TJaJzBjLolyTapGsadPUUluGrdUEOZv1Axo9UWNrq0erE1bVZ+UWjjQpzr+xwdWEB7WClmEqlrMlW1KdXtMnU89zCbtDvLjc+E26Gp7SZopMPHI5KN9WW74NFuTXgVXmUwnk4jVBe524JL3JDc1lY2UtyY3FKopjqdyGNo6g00qPRXfrJpkZ6RimSU39UsVzSZ+UjtWatSx3rNnL7s1/OUZpqfgtKa13ALSXWT15FgnvbuDb/nWwxioM8jGUi3G/kqs5K3u6dI99MAN5KVauXzOsy70ZkjnsIvm+m2NWOmpbW/RaHcLK+ZKzxkvnUKIAZbByg2Km05Q0PPpL2yXNbcMlp5K2m95qLWdONEMlZwgt/83dGONhSR/3mO3HRdlk5zemRXM1eQnBHDubJnkntLxhsmwkx1hGLjEbpiVlmTaNDKhVOpc97hLUtJG0WZd1HTOElHm1HBNtMXnnLnC7/xu8WhXT+Msz31phBS3TVGwZsCy2L07g4z7h/G9KFE5vOknfjHY/BlhrbLXW2GCRXwf3NcASrJsz1K1o2/wKe9b7k6bXc+d6EoZ/5KmoVr0q+Zm3yENHWkw8WQUaNGXWrBGyYykPQUFBnmHERfEk3HGjv5tKcizall1wSdnGvJVhZGqyOf/zOg4VW3ENZSMfq1xGVSUG4zwcXKWPtaQ8o7T1/b20YeQR9s1EFuk/ZfMXr2CnS+Js+KGHrKPyKe1XchmyrqdL99gHMZCbYtX6NcHKdQCGeRR69EIuh6GS77speiHd561c93LWeOkcShagJFZsUPRkXzxIYEwekYd3EpGuB+rx1qKNuIvNjHRqgrNHAG2G96F1n77Y7PBg+OQlRKntuRngybHLF/k9OJ6sKH/8riYSeSiIa9lR+Psn0GDsYta/XcDyQS1w7P89+f1H0rbBWyza6I7YPBKnJs54BLRheC8786CAWvQbM4jLs/syZMpWUus4oE76g8N+BwmKySE64DAXr57mcHgiGZHHOJVo9vGgPtMoljhuX/aRPi4hleC9a1k8+z/MnvMZk998gwnfHuZypDU56YE27SBfTvmCFT8fIaPDdKb0a8yoxRsZnfA14z6ez3ff/Ib9nKW4OxT/GeBKNEnOgxjoUETAgnd48/VP+CXDNHQA6knkqYeGi78HE58Vhb9frPkR8mNMrCaZyz8uRnI48Ar5VwM5cCGOSO9AYu5eJfBQJNfOHuBE7B0uBx4ja8giNroLNo90oomzBwFthtOj6CIHA2PIizzMzoh09NQrc9yl2NJ80nJ+7HGGab0H4D5jKxe0VUgN8SVrqOV1LEpDf5tL3n9wJS+GEz6RREf4EJ6YQeTxcOx6Wdanf1pD+ozuRtyKT/ly0Q8sDHRm8YrR1M+O5FDQNbKj/PGPy4NqHXFzPsei8UsJb/AqfW124DF8Mkui1NjfDMAzUMc7i9fzdsFyBrVwpP/3+fQf6URm5CGCrmUT5e9PXLVRLN44moSvx/Hx/O/45jd75ix1xyHnMj5BMeREB3D44lVOHw4nMSOSY6fknmFQm6H/HkerlwYxqql5/opRNWCsRTzOkmvUJ+gIgVfyuRp4gAtxkXgHxnD3aiCHIq9x9sAJYu9cJjBQTbe+NuzwGM7kJVGo7W8S4OnPDfPrSq4DFy77BBGTE03A4YtcPX3YMCfHTmGxLLOM+kVsgWS8/uYXtW3J5EXzae33Lp1fGsV356FmcVpq9RvDoMuz6TtkCltT6+CgTuKPPxKo95YVtSQ5lh5kXfyd4Pgsovz9iLVwIRnIP+fFwqUr+fGr3VSfsRSPZpUlxxKoe4fF69+mYPkgWjj25/v8/ox0umPSm6RidUmUW8saqnV0w/ncIsYvDUb9puWx5uPUZ1uuVctxS/d3/z+zjHrOVZN6j/x9Dh6LUnmpu5rATWtYPv9zVoc2pc8D11E5uTfp6efla64g07qeLtljq5B28EumfLGCn49k0GH6FKgns65llqY16/eB1gG3ueK7lxPxSZzat5/Q63YSOXxV4n13BA5XvfnjSh4xJ3yIjI7AJzyRjMjjBKe0sGq+bJtPYvmPPTgzrTcD3Gew9YKWKqkh+GYNtcyheQGWgfKo+/J4rPZjLVELRrOs7QbWjayHCg3hi78n0WM2o56Yr/4qPAlkH5jLyuc+Z/ZrZjZjBXSxC+kzJJEvI1fxOOSxpui49sNrDI6fS9Tqfpbf5FD463msPV0aZf1ah/T2TaGEx2k/1sbtY1+VqSwYUQ8VOhKD9hDbZQJvKJsTBQB0xO3/jrnfLWC2XwNG9VaamyRaHTq9kLmH59Gj0+vRPwsq2WeUx9nTTVHW7/1i3XNQ/sY8NvuxJpGwqFoMHdONeioAFbWaOePc/DllF6lQjCDznDf7z9Vk9BfTeKWWUhkW6FOJ2H+ci3e1VG7Qlu4tHu/uXpMUwoHAaHIKVdRt5UKrp1kl+4zy2Hq6Bcr6vV+UP/EoKCgoKCgoPHEoWzgFBQUFBQWFJw4rNygVZHZVUFBQUFBQULACKzcohofeWP8gJAUFBQUFBQWFB0e5B0VBQUFBQUHhicPKDUoBSaf2cjClE1NGtUefGs6+PfE4jWpO5JbfuOE0hmmj2lEd0CQG8mvgDQryimjYxZVmderTpPp1jnhdo+lrVQjyLuQfn46hxQ0/PH89xXXxIkPHj6FrfRX6WxHsP3iBTK1A7diL8f1bGyyRu/cRnHSHKu1G4P56W6x/UK6CgoKCgoLC04hVf+LRp0dzdO18vvG+hlafyZWA9Xw163t+3Hoa26YafP79EWtidXD7MJ+8uRbd4LcZ89JlPu//AasCznAmcBPfzPyOtUcTyPkzloTIzXyx4S4DP/mMd6r8zIh/zCdCe5tfP1tKxj/G4zG8HjGhiaC/we4pH+Ld7F0++WQklTaNZNi3p5FwMCkoKCgoKCg8Q1i1QVHZG5ldy7BEamNPEny7Po2fU1HV5WVcqtnyQu8B9BnmhmPlFgyY9CnzV82khe9PEoZN24eyRCooKCgoKCg8O1i1QcHc7CpjiVR3GM6ohuHs9k0kJTSENNe3GdrcttgwaYNBEiln2KzxkJZIBQUFBQUFhWcFqzcoprZTmdtW1PY4DRzJq9UucV41nl37p2EpiZSzc2behyVSz60LAUTcUHYqCgoKCgoKzyJWbVD0mcZm1xRZS2RCajB71y5m9n9mM+ezybz5xgS+PXyZyIOBxORFcnhnBAZJpIRhs5rWekskyeybM4GZXtfMQ1VQUFBQUFB4BrDyWzzWob2ynUVBrRnb9znu3L5LTmYsXr+m8OGyT3lMkkgFBQUFBQWFZwCrPkGxjkICly9g75kYknW1adS4AXb5mdi79eeRSyIVFBQUFBQUnikq9BMU/a0Iflm1mSMX0tDWakH3UVOYNORFFKm0goKCgoKCwv1QoRsUBQUFBQUFBYWKoAL/xKOgoKCgoKCgUDFYsUHRk3k1lJNBQQQFBXEy/BrZeoC7JJw9SVBQEEGnLpFW4d/41ZNx/nd+C76OxvxXufEcX/8je6K1T7RpOTf+OOt/3EP0Xx5YLvHH1/Pjnui/IEcVMT8VcY6/F3ev+bHu+1+4YJ4wfSZBaxew65L5L54wTNb4E84TmlPZGniMPDk9sCIw7qPyPelpH7M+4wJHvU8RX+4DUeVzUFFYsUFR8ZxDQ5I3vEu/idvJbNiQmiqAatg7aPH+4lvCajSiTkXfCKuL4+eZ3xCmr01lk1/oSYk6yKoFK/G/9xyUJ9G0rE8h6uAqFqz056Ee16LP4laW3vyn94U+JYqDqxaw0v8GDxPKA1MR81MR5/i7oE/n2okdLFnqS4JE57CxUfFkp1JijT/hPExO9Vm3eMglbkk5NfBYqKgeWBE8ij4q1ZOepDE/EDqu75jFvJMaalc1/50EUjmoQKzYoIC6RhM6tWtM5SYdcG1sh2EvYkv1Bp1o39mZrm3qmG0iKoCcJBpP2cbcHrXMfqGiUZfBdG1yb0ekom6PKcwY3ZbiZ8I9Gaga0WVwV0rCfCD0pHvP44fj5W5ly0TVqAuDuzYpnrfHTUXMT0Wc42+Eyh7nvp1oLLW6VXXpMWUGo9s+yZk0X+NPOA+TU3063vN+4CGXuCVl1cDjokJ6YEXwKPqoTE96Ysb8oNwlscFEtn/Thzrmv7JAJgcViO28efPmmf/QEkHWyS2su+bMNPeXqVmyYSrkvG8Qdfr35wVdKuF7fuKktim5R1ew7kg6DTq3o34lo9No0ji9bzOBeS0QJ9ewet9VqrfvQOWoXaxe7831Oi44N6wK5BEXdJKwiACCk+1o3b4xdjagSwth10+78Q2LI/Z0GLYDpjLUUUvSKU+2h9nSuZ09KnSkhf7Kbu8jHI/S0tz5BWqqQJsSzK5tXvgcO0NWvbY41a9iFBgUJJ3C0/Msqhqx7FzxC2F5Dji/qOHs9lUs+zWJxr3aoQnezLIVvtxx6o5TbRV5cX5s37SdAyeTsWvdnsZ2NoCOtJBd/LTbl7C4WE6H2TJg6lAc1XnE+W1n0/YDnDQaUyk5XDqwhR0+fgScy8XBuQXa4B9w9/iR8xo1RVWa0KVVFRLMzlEpLZw9P51E2zSXoyvWcSS9AZ3b1acSgC6NkF0/sds3jLjY04TZDmDqUEfUeXH4bd/E9gMnSbZrTfvGlUgL38uWE3ewi9nFpvO16NXBHgB9eihbfljCNv94qjt15gXVNX5bvYLDOS3p1lJlFvOL1NGnEr53Cyfu2BGzaxPnazlTK3av0fxoSQnexTYvH46dyaJeWyfqVzF8A2yf5xFORpzhQlYNOrWoZ5SbAqM5rk16+B5+Oqmlae5RVqw7QnqDzrQrLjRNYiBeB4OJCDlLqo0aTQFUKbzEgS0nuGMXw65N56nVtQM1Es3nTnArYh+eR04SceYCWTU60KKeSqZu9JKvlUKyrlrXoxJY1k+lNLPcdaWDPZL5MsFiPu3gTihbN6XSbfobOBl3j4IkTnluJ8y2M+3staTK5lJDYqAXB4MjCDmbio1aQwFVKLx0wKJOLMZxX7k0RXqNqyWuUbx49CmEya3R6unl96SCJE55enJWVYPYnSv4JSwPB+fW1KsEOZcOsGWHD34B58h1cObFOmrD+jbvLxrjnKoM/cuaddoGQn5wx+PH82jURVRp0oVWVRIs5tK4TUiuE20Kwbu24eVzjDNZ9WjrVJ8qgDCrgfLyL1mr5fRAqdqzedAeqL9FxD5PjpyM4MyFLGp0aEE9leUxldLC2Wu2nu1Lavxx9dFGpJi/70iOuby8G3qb51kVNWJ3suKXMPIcnGldz1CkUsdqUmXGX8ZacCw4LT8+jI/NoMdH/8Qu1Jpjjfvyg7/3lomwCq2I+a67qNF3hUjWGf88W/z86efij0KduHVhp/igfU3h6v6dWL1jq/i8d0PRe1GM0Ja8Vicyo/aKqZ2qi5c/2iC27z8glox8Qbzw+iyxYvOvYu/C10WzjrNEeJFWXNvyiZix709RlB8tlg1sJFznhgvdzUNi2pDJYm+yVhTFrRPD7B3F1GMFQpd2Vmwa11o0ev+AyBdaEb91kpiwPErk6pLFmsHPi57fRwtdsqfwGD5TnMjWiYLodWKEU2+xICK/dBi6FBG+eoxo0aCnmDhnoVj21TuiQ60mYtyedFEUv0T0aeohfssXQhSFiZmdXMRnIYVCe22L+GTGPvFnUb6IXjZQNHKdK8KLdOLmoWliyOS9IllbJOLWDRP2jlPFsQLpMRmTf2iiaDlsg0jXpYtto5qIgav+FDqRLTYPqy9Ge+YKISTOMcdPXNj5gWhf01W4f7da7Nj6uejdsLdYFKMVQndTHJo2REzemyy0RXFi3TB74Tj1mCjQXhNbPpkh9v1ZJPKjl4mBjVzFHL+zYvcUF2HX0V0sWfI/MfUrH6PIdOLmnvdEM9c54lyREELcFF7zvxch+VIxJ4qMyN1iioud6Oi+RCz531Tx5S/HjOZHJ5I9PcTwmSdEtq5ARK8bIZx6LxAR+dnCy+NdsTZFJ3Sp+8Ssr48aXV+YzHHurQti5wftRU1Xd/Hd6h1i6+e9RcPei0SMVgiR7SM+6jpGbE/XifzQGcKldjcxddNh4b9rinCx6yjclywR/5v6lfAO22Q5dze9hMe7a0WKTidS980SXx8tkK+bbMvXSlJGXWks6meO8DtrmruvfFJl8mV0DYn5nBteJHSJS8Vrjd8XB4xfK3Qi7ewmMa51I/H+gXyhKyOX2T4fia5jtot0Xb4IneEianebKjYd9reoE8l1cD+5NI5OZo1LXqPI6DjJNZpvVU9KCV8txrRoIHpOnCMWLvtKvNOhlmgybo9Izz0kJrYcJjak60T6tlGiycBV4k+dVH+5ZJLT+16n2ZvFsPqjhWGJS89lKRLrRJcsPD2Gi5knsoWuIFqsG+Ekei+IEPlCmNRAufkvo1bleqB0vIUP3AOzvTzEu2tThE6XKvbN+loclTpmjp+I3G26nn3SS9+ULHvSo+mjeSbvO3J9v/y861LCxeoxLUSDnhPFnIXLxFfvdBC1mowTe9J10seGJZc5fsm1cCpFfnxG3O+xFfLeWw7S/+yTQGWrMhbqFKNHjwobVNR1Hkz35lVpOXQaH40dy/uDHElN+NPo5hkVddoPxs2xCo26j+XdEcOZ9EYncit3wGPCSP45YRjt0hJILLzCzs0R5GYeZ6dXGFX7T2RAo3xiNy/E13EMQx1sUTfrQ89Whi2ziWlZG8WWFbG0H9aG6ioHPtgayraJzbm0cTFBzQbStZaKKk7vM71fEqtW+1HygZ+qIS8N7Ezjms6MmfUZ02dvZtl7lfHZE0hBJTW2Jbv8SqhtAXRc2bnZ0sh8N5bNC31xHDMUB1s1zfr0pJUa0EmNyfTW38ovfcDK2X24efQQF3MgMyMTk7+YSp3DoZqsWVoXu5mFvo6MGeqArboZfXq2whDKTjZH5JJ5fCdeYVXpP3EADtVaMsTNkcotBjDp0/msmv0PowurqPf6v3mnyJNNQQXornsT2/hNulSVijmb2h2G4OZYmRYDJvHp/FXMeaeP0fxcYuPiIJoN7EotVRWc3p9Ov6RVrPYrsjBZG2M8x6q6zgzu3pyqLYcy7aOxjH1/EI6pCfyp5eFs2pqq2AQvxP2zLcS6/h/Tu9nK142t+Wtl/kUgW1fHuWBRPw5Ua2mau9kDMmTyVfpRtdR8NtLc02uao8LeZTAvNzMse/lcaok9Gczt+o15TlUVl5ddqGb7Ar0H9DGrk4HS6+B+clkSm05mjcusNeMhSq5R63pSw5cG0rlxTZzHzOKz6bPZvOw9KvvsIVD/Eh+snE2fm0c5ZChuMjVS/aW1SU7vd50aU/5cPqjxXVt+/mVrVa4HysSbH/XAPdC2qg3BC935bEssrv83nW5qiWMcqtFhiPF6ns0/6pe+jVn2pEfTR03ed3Qyfd+KvKsavsTAzo2p6TyGWZ9NZ/bmZbxX2Yc9gXelj117hhfLGL/kWlDVlR2fCfd5bIW895aDlRsUW2rUrAE5t8k23qPosrgtnqO2CsAGG6OP6yrZ2iL0ljclGVuRVbaq0o8v1SpUQqAvyiIzU0fD7mMZN24ck//7FV9/4EpcTDzakguoMP7cs+SculvczMwgPd1wd5K6fnNqk03KjTTy8kucyDRp2pD8O3clbxg1nLYybdo4gk7u7jIZI3O1OGLitaV5uBemTmpMr5icUZ+fiO/qNYQ9P4ihLrUtN4Ny55AxS2vjYojXGuW6+L90WZlk6hrSfew4xo2bzH+/+poPXqlpyKGNSrogKndh0ngHDq7dS5B3Oq1GOGIrG7PBXG1jUFeDyfykcCMtj9KpaELThvncuVvNwmRtjnHd2JgWGrZCj56HtGk3Gsby35fS68+VvNGxH7MDbsjXTQ3z16aVxiODaV0VkS0VQ02z3Mnmq7Ry5eZTHsM1Sv5PMpdqOgwfRcPw3fgmphAakobr20MxpNK4TioglyUX18qscZlrlDXEEqzrSVAyQVRu0wZHdGj1+ST6rmZN2PMMGupCbQRCsr/kmOb0PtepMeXP5YMa33VW5L8U01qV64Ey8bqmP3APrDFsOb8v7cWfK9+gY7/ZBNy4JX2MyXo2RbonGSEXh8z8yPVRjHuSVqbv31feSwoQQ9rLOLaM8csiMz6rKOPYinzvlcLqIdbt5kab6ycISCo9dcHlA0TW6F68W5R1HJthbEWWoHIburaPY9Wni/gjtRDNDT9WbAyhjXMrbvp64n9LD2goKtKgKbx3UPE5K7XnFZcUts1bSVimhuzzP7PuUCad+/VAnPDBIEXWkpqmo8/Q3lQzvi4gCgrIEwBFxCfcwa2/G9WrVadqfia38kCXFkN8VgEajYyRubANzq1u4uvpjyHMIoo0GgolxxRkdGUNoau+5Fij0bzjWp2c2wUIoSG/QI+NjY6iIj05eQ64Sp5DOpvqNs60uumLp/8tDKEUodEUUrlNV9rHreLTRX+QWqjhht8KNgblljMvtji+N4lXTs5mXtbL/KMeZcSstWwK985dpTP9eghO+JzEMBWppOn6MLR3voXJ2hKj+MxPf4+HsWknebPvck/+tyuckHn12b8rXL5uMs1fGwR5CQQfOyv5dXvLuuqNi1QMuSaBlpGv0sqVn88yML6GTC7V9k4MHPkq1S6dRzV+F/untS++Ec64Tiogl6VXlFnjMtcwGqJKco0aficzPFNEAQWGCaIoPoE7bv3pcn4VXx5rxOh3XKmec5sCIdBoW9LFor+kFJ+j+Eqya10mEpUNNroiivQ55Dm4ljOX92N8NzqMKlbk34Blrcr1QJnaC2n2gD0QMr33cbnn/9gVHsK8+vvZFdZC9hiLFgNl9KSK76MGiteCWqbvW513QUFBnuFcRfEk3HGjv1utMo+VHn9Za0HmACMe7NiKee+Vw8qbZEHVsCtu9cNZ+dUmjoWe4thve9kf2ZwPZ42iWVW4fXkfG1Z7EWnjQu9WuRzdtpFD8TVx69cLx1qGzwTvXjnI+tW7OatrQ68OcHLHBrzO62nfsy0a/22s//UiatfX+dDdjZyDC/lsxjf8fOZ5xn0+gS49utIgci2zvvYk4vpNkuNiyK7eki6tCvHbtIb90VXoOuAfvDGoLTf2zuc/M5fwW0Z3Pv7vEFp27EG7jG18uy6U6wlhRNm9y9x/uVK7dFuIyDrFT2v8uFGUT/LZI5zQvcW8T7pRt2pd9FFL+eIHHy7rGvFc6hmSK7Wjz4SxdMs+yMLPZvDNz2d4ftznjG/flE5dGhC5dhZfe0Zw/WYycTHZVG/5KlPd3bhlMqbxvFhyt7EN1TRX2PbdUryjb1NDnUZg+B3a9htI6ztHWb7Bl0KnIUx+7xWyTM4xkqKjG1ntFYmNS29a5R5l28ZDxNd0Y8DrI+jnEMnaWV/jGXGdm8lxxGRXp+Wr43F3u8PBhZ8x45ufOfP8OP77huDoxnV4hefSrHtPOjmY3pgHYGPXkueTI1C//Sn9GqhkYr5N06Z3CNi5l/DcZnTv2YmGhZHsXls8P/0H8fqwjmRs+5Z1oddJCIvC7t25/OslW4IWTGbpuUJy0zKwcX2bQW4vlFxbn3mh9Byv2BPptQGvSBtcerci9+g2Nh6Kp6ZbP16reYqvJ81lR9BpQgKOsP/gCW7UcaL2hZ2s9wont1l3enZyoH67brS5ZTp37k3P8u3kpZwrzCUtwwbXtyfQb1A/ybp57u4JFpi91vXqHPqMmc/FJuN4s6NdSexyddWkvXkM/+UNcZSN67xKcudgZ0fbHu0s8+Vau3R+qrelW5tbJvP5uXsjru9dy5p90VR17cvg1nXvZZLMC7tZu2Y/0VW60r+jloCfVkvk8jU6Rq9g0twdBJ0OIeDIfg6euEEdp9pc2LnepE7s2pqP4/5yWboGVdTu2EVyjb863h23O2ZrrV3N0hxUll6jbWqdZ/e6snsSIotTP63B70YR+clnOXJCx1vzPqF7Yy1Xtn3HUu9obtdQkxYYzp12w5k+riupJv1lMFWjjXLa2wW3Xm3M1rr8Ou33anOy/ZazwbcQpyGTee+VLNO5HN+u9EsJ+hxOmK+TfoPo0S6Dbd+uI/R6AmFRdrw791+4PpdN1J7SGhg54vVy8i9fq3I98OXXhjK4vVntTehOj64P0gP15JxYwOSl5yjMTSPDxpW3JwxicB+zXP73DQqPbmSd0XouvdFWqic9mj7q2Lo65zw3GnrSwOGMGtBEYswvM6TcvAuyTv3EGr8bFOUnc/bICXRvzeOTbnWp0VbifeujliTv2yAzfrm18AJ1U4+yfa/l+Pr1cuTeUrjfY19rn8PvGx7+vbcslEfdF6O79gOvDY5nbtRq+sncUqDwZPNX27Q14Yv5PtGD2aNKv6D3dNaVlivbFxHUeix9n7vD7bs5ZMZ68WvKh6z8tLX5i59udNf44bXBxM+NYvXTM0GPhKezVp92dFz74TUGx88lanU/lLSbYvWfeJ55dHr0et0jeyKewqPmr7Vp6xKD2BPbhQlvmD094Gmsq8JAli/Yy5mYZHS1G9G4gR35mfa49W9u/spnAB16vb6sWy3+PjyNtfoMoNPr0SsFKInVf+J5ptEkEXIgkOicQlR1W+HS6nllJ/vUoaZ5t1ewu3SQnTt281vQVbTt3mbqP9tizQMRHxZVrWY4OzfnOeMt/9NaV+rmdHvFjksHd7Jj928EXdXS7u2p/LPt48jk40RDUsgBAqNzKFTVpZVLK55/KiboEfC01upTjiYphAOB0eQUqqjbyoVWf9sClEb5E4+CgoKCgoLCE4fyJx4FBQUFBQWFJ45HskHRZ5zn99+CuW6pITax6uozg1i7YBcVIwH9q6zLcjx60+Mj5bHZZO9yzW8d3/9y4RHURMVQITE9ocbbx4WcWTfv+h9s+fYnwi16RUVwv2vQtBYVFBT+Wh7BBkVH3M8z+SZMT20zg6CFDRLDQ6ms/MZROfxF1uWyeBjTYwXYNx+cx2eT1adf48SOJSz1TSh+U6jImqgoKiamhzHePtXImXX1mSSc3s2yhd7EPKodgcka1JN1K8v0yaJGWNaigoLCX8kj2KDkkNR4Ctvm9sDCQ2xm1VXV7cGUGaN5EAmoFH+JdVmWhzE9Vox988F5fDZZlb0zfTs1LinEiq6JiqBCYnoY4+3TjpxZV1WXdoNefoTfsjJdg/p0b+b9cFz2MdvmtaigoPDXYt23eKy2EENeXBAnwyIICDayjkraIB3RJp3Cc3sYtp3bYa8CXVoov+725sjxKLTNnXnBoEKUNHVKU0HW5TIMp+Rc4sCWHfj4BXAu1wHnF+sYHDcWsWvMTI8y9lqLWNpASPn2TZOH80jG+yKas9tZtexXkhr3op0mmM3LVuB7x4nuTrVRSVpIH8AmC6AxNxh3pUONRMvzS+ZOcCd0K5tSuzH9DSeTmrALXc+89T6EhZ4iKMCXg96n0bbvTiubyxbn0csaPtMJ3fIDS7b5E1/dic4vqLj222pWHM6hZdeWqKLNjbV6Us3Mzl1rxZrUqaSdU9LEaj5Hxcbb2mVYdjWJBHodJDgihLOpNqg1BVDTjpyz5rbpGhaWVzshFYO0PbrceK018hobUUsOtawtWbuy9gKeP0bT9v0WXFy3gcNpDXipbfE5Jde+pUnaIS/E0sLbup6JbbVT/Sssdvfgx/Ma1EVVaNKlISneZiZutWkt/g23kgoKTxbm9kBLrLUQC2nraKG0DbJAlybObhonWjcy2Da18VvFpAnLRVSuTiSvGSye7/m9iNbImzqlqRjrsqzhVJcvDk1sKYZtSBe69G1iVJOBYtWfOsnYL90wNj1K5WaO8DsjF0s59k0TC2gZ8RbFiyV9mgoPg55ShM3sJFw+CxGFkhbSoge0yerELTOD8VfeYRLnz5HMnRA6kbj0NdH4/QMi36QmdCLNa6PwStcZjKIfthOt3tstkqXmIDGjbMPnzT3ivWauYo5Bxyxues0X3xt0zBbG2sSMSFNj75e/mNSpnJ3T0sRacnkzi3BuGTWYLXw+6irGbE8XuvxQMcOltug2dYs4cem8mUXYW7ImLGOQs0dLmWON45WoubKMryaHytSWpF1ZCJG7VYyo1UVMXrNDHNw7V/Rr/JpYGq+Vt/Sam6R/T5C38JrYVoXI3jxM1B/tKXJlrbdGtWgWpoKCwuPHik8zrbQQa6Wto/lR0jZIVPa4DH4ZgwRUS9SWFcS2H0ab6iocPthK6LaJNL9ijanTlIqwLssaTgsq89IHK5nd5yZHD10kh0wyMjWSsbduZGR6lDSyOlDtxfJiQdq+aWIBLSveSqhL9ZRUKtaQSlpINXcf0Caroq6ZwXhmC1+J8+skcmd2N4BJTaiwf3Mib9aHxF3/YvrJfqxe/hYOKok5yK5dpuFUVe91/v1OEZ6bgijQXcc7tjFvGnTMFsba7NodTI29c94xqVM5O2eRuYnV5GM+Y4twGTWojeVk8G3qN34OVVUXXnaphu0LPene1sU0ppktJGvCwgZrK2ePLrB8rXG8UjVXhvHVGOnakrMrG7Cxbcar7mN5fcQY+ja7Qdx1nbylt8jMlOz2gqyFV2NsWzWjXOutgoLCX47U2pXE2CYraSHWS1tHXdPlbZAGKyWAjls3M8lITzfcPKuuT/PakJ1sjanTmIqzLgOWhlP05Cf6snpNGM8PGopBlikde47eOGfSuTHYa0svJxmLnH1TCot4pZG0kL5S7SFssqYWXunz20nkzvgcxZTUhAHt5dVMnpXAuxu+pX8dQHIO7h0nZ/isTJdJ43E4uJa9Qd6ktxqBo0HHbGmsvVfrxmZnozqVs3NWMzexppnXlLFFWGbe1R0YPqoh4bt9SUwJJSTNlbeHNsfWPCaZmrC0wSbL2pAtXmscr8z5y7Ka3kN67q1SDwNqbG31aHVC3tJbzdyUXGqSNsRmauE17lvGlGu9VVBQ+MuRbOfSlGW7RdZsGtKsLBvkvb5QifavuJCybR4rwzLRZJ/n53WHyOwkZ+rUc+tCABES3zCpMOuyhOHUTRXKqi+P0Wj0O7hWz+F2gUBotLTsYhl7ih6jnEnnJihXLhaVFfZNM6TirV6N6lXzyTToKYmJz6JAo5G2kAYVPrBN1nD90pFInt8/QCJ3+RRI7KJKTpUXxjcTF6H/dDNfvGKHLuks564Hy56nrPcYW8f3mPTKSWbPy+Jlg44ZTaiEsTa/AK1ErRvOLW8nzTc3sQZJfG/WKEDz8xtQY+80kJGvVuPSeRXjd+1n2j0ds3FMMmZYCxtseAdZG7LFa43jlTm/XNTGSM69RbEYISxzDchbevPNTcnFdlsJC6/hrrjS86tsbNAVFaHPSefYCinrrWkx6m9dICDihsnPFBQUHh9WbVDuXjlM4JV8rgYe4EJcJN6BMdy9GsihyGucPXCC2DuXCTwWS9W3FrHRXbB5pBNNnD0IaDOcPu0msfzHHpyZ1psB7jPYekFLldQQfK/+SeShIK5lR+Hvn0CDsYtZ/3YBywe1wLH/9+T3H0nbBqNYvHE0CV+P4+P53/HNb/bMWeqOA8nsmzOBmV7XzENF3fE/bPm+Bd4TRzFh6nSmffQBUzdVZ8p/XqUKcPuyD0ExOUQHHObi1dMcDk8kI/IYpxLN31DyOee1kKUrf+Sr3dWZsdSDZpVb06evDTs8hjN5SRRq+5sEeAaie8cydqc7kRwKukZ2lD/+cXnUk8iNS6JcLLZ0dHPm3KLxLA1W8+aijbiLzYx0aoKzRwBthvcyi1UmXlUt+o0ZxOXZfRkyZSupdRxQJ/3BHzkjWLTRHbF5JE5NnPEIaMPwXs/RfNJyfuxxhmm9B+A+YysXtFVIDfEla6hl7L1KhL16si8eJDAmj8jDO4lI10O9tyzP36ejRO78+TPrIr8Hx5MV5Y/f1USjmogkcI4Hi1Jfors6kE1rljP/89Wc0kvMwS5vArwDicmL5PDOCNLNP7wAUNVnxIejebnfCHpWN/xI3boPfW124DF8Mkui1NjfDGCXdwDegTHkRR5mZ0Q6en2mUUxx1Bu1mI2jE/h63MfM/+4bfrOfw1L3hujTDvLllC9Y8fMRMjpMZ0o/48fC68mMPETQtWyi/P05f0Zm3hNSCd67lsWz/8PsOZ8x+c03mPDt7/yZeZGDxjFRj7csaqIHWosYGjNq8UZGJ3zNuI/n8903v2E/ZynuDki81jheqfO7cNkniJicaAIOX+Tq6cOEJ2YQeewUJktHau57aLj4ezDxWVH4+8WWvlZ/m0vef3AlL4YTPpFER/gYznk8mKRa0mu/oT6Ng19O4YsVP3MkowPTp/QznCv/HF4Ll7Lyx6/YXX0GSz2aQabpGqzW0Q3nc4sYvzScBq/2xWaHB8MnLyFKbc/NAE+OXTaqxdg7JO+bw4SZXqXxKigoPFaUR91L8bQZTp+2eBWk0V5h+6IgWo/ty3N3bnM3J5NYr19J+XAZnz4OHfNTimLhVVB4NrHqE5S/H0+b4fRpi1dBisLA5SzYe4aYZB21GzWmgV0+mfZu9H90Dwp5NlAsvAoKzyTKBsUCDUmhgWQ27YjNheNcyTH//ZPG0xavghxVXpvP1o8bcHLVDP71rxks97dh4PSxOD++pws+fWiSCA3MpGlHGy4cv4JS/goKzw7Kn3gUFBQUFBQUnjiUT1AUFBQUFBQUnjiUDYqCgoKCgoLCE4eyQVFQUFBQUFB44lA2KAoKCgoKCgpPHMoGRUFBQUFBQeGJ4/8B6s3h1DTz71YAAAAASUVORK5CYII=;" vertex="1" parent="1">
          <mxGeometry x="560" y="-120" width="578" height="200" as="geometry" />
        </mxCell>
        <mxCell id="420Tv9R_N6Mz5HBJ3JaE-2" value="Paciente" style="whiteSpace=wrap;html=1;align=center;fillColor=#f0a30a;strokeColor=#BD7000;fontColor=#000000;" vertex="1" parent="1">
          <mxGeometry x="560" y="160" width="100" height="40" as="geometry" />
        </mxCell>
        <mxCell id="420Tv9R_N6Mz5HBJ3JaE-8" value="Ingreso" style="whiteSpace=wrap;html=1;align=center;fillColor=#f0a30a;strokeColor=#BD7000;fontColor=#000000;" vertex="1" parent="1">
          <mxGeometry x="920" y="160" width="100" height="40" as="geometry" />
        </mxCell>
        <mxCell id="420Tv9R_N6Mz5HBJ3JaE-14" value="" style="endArrow=none;html=1;rounded=0;exitX=0.5;exitY=0;exitDx=0;exitDy=0;" edge="1" target="420Tv9R_N6Mz5HBJ3JaE-15" parent="1" source="420Tv9R_N6Mz5HBJ3JaE-16">
          <mxGeometry relative="1" as="geometry">
            <mxPoint x="794" y="159.99999999999977" as="sourcePoint" />
            <mxPoint x="839" y="115" as="targetPoint" />
          </mxGeometry>
        </mxCell>
        <mxCell id="420Tv9R_N6Mz5HBJ3JaE-15" value="Codigo_Incremento" style="ellipse;whiteSpace=wrap;html=1;align=center;" vertex="1" parent="1">
          <mxGeometry x="731.5" y="100" width="125" height="30" as="geometry" />
        </mxCell>
        <mxCell id="420Tv9R_N6Mz5HBJ3JaE-16" value="relacion" style="shape=rhombus;perimeter=rhombusPerimeter;whiteSpace=wrap;html=1;align=center;fillColor=#76608a;fontColor=#ffffff;strokeColor=#432D57;" vertex="1" parent="1">
          <mxGeometry x="749" y="160" width="90" height="40" as="geometry" />
        </mxCell>
        <mxCell id="420Tv9R_N6Mz5HBJ3JaE-17" value="" style="endArrow=none;html=1;rounded=0;exitX=0;exitY=0.5;exitDx=0;exitDy=0;entryX=1;entryY=0.5;entryDx=0;entryDy=0;" edge="1" source="420Tv9R_N6Mz5HBJ3JaE-16" parent="1">
          <mxGeometry relative="1" as="geometry">
            <mxPoint x="757" y="150" as="sourcePoint" />
            <mxPoint x="660" y="180" as="targetPoint" />
          </mxGeometry>
        </mxCell>
        <mxCell id="420Tv9R_N6Mz5HBJ3JaE-18" value="(1,1)" style="resizable=0;html=1;whiteSpace=wrap;align=right;verticalAlign=bottom;" connectable="0" vertex="1" parent="420Tv9R_N6Mz5HBJ3JaE-17">
          <mxGeometry x="1" relative="1" as="geometry">
            <mxPoint x="34" as="offset" />
          </mxGeometry>
        </mxCell>
        <mxCell id="420Tv9R_N6Mz5HBJ3JaE-19" value="" style="endArrow=none;html=1;rounded=0;exitX=1;exitY=0.5;exitDx=0;exitDy=0;entryX=0;entryY=0.5;entryDx=0;entryDy=0;" edge="1" source="420Tv9R_N6Mz5HBJ3JaE-16" parent="1">
          <mxGeometry relative="1" as="geometry">
            <mxPoint x="823" y="180" as="sourcePoint" />
            <mxPoint x="923" y="180" as="targetPoint" />
          </mxGeometry>
        </mxCell>
        <mxCell id="420Tv9R_N6Mz5HBJ3JaE-20" value="(1,N)" style="resizable=0;html=1;whiteSpace=wrap;align=right;verticalAlign=bottom;" connectable="0" vertex="1" parent="420Tv9R_N6Mz5HBJ3JaE-19">
          <mxGeometry x="1" relative="1" as="geometry">
            <mxPoint x="-1" as="offset" />
          </mxGeometry>
        </mxCell>
        <mxCell id="420Tv9R_N6Mz5HBJ3JaE-21" value="" style="endArrow=none;html=1;rounded=0;exitX=0.5;exitY=1;exitDx=0;exitDy=0;entryX=0.5;entryY=0;entryDx=0;entryDy=0;" edge="1" source="420Tv9R_N6Mz5HBJ3JaE-16" parent="1">
          <mxGeometry relative="1" as="geometry">
            <mxPoint x="889" y="260" as="sourcePoint" />
            <mxPoint x="794" y="259" as="targetPoint" />
          </mxGeometry>
        </mxCell>
        <mxCell id="420Tv9R_N6Mz5HBJ3JaE-22" value="(1,M)" style="resizable=0;html=1;whiteSpace=wrap;align=right;verticalAlign=bottom;" connectable="0" vertex="1" parent="420Tv9R_N6Mz5HBJ3JaE-21">
          <mxGeometry x="1" relative="1" as="geometry">
            <mxPoint x="36" y="-6" as="offset" />
          </mxGeometry>
        </mxCell>
        <mxCell id="420Tv9R_N6Mz5HBJ3JaE-23" value="Medico" style="whiteSpace=wrap;html=1;align=center;fillColor=#f0a30a;strokeColor=#BD7000;fontColor=#000000;" vertex="1" parent="1">
          <mxGeometry x="749" y="260" width="100" height="40" as="geometry" />
        </mxCell>
      </root>
    </mxGraphModel>
  </diagram>
</mxfile>
